<svg xmlns="http://www.w3.org/2000/svg" xmlns:xlink="http://www.w3.org/1999/xlink" width="256" height="256" viewBox="0 0 256 256" fill="none" role="img" aria-labelledby="file-organizer-title"><title id="file-organizer-title">File organizer</title><g transform="translate(16.00000 24.40000) scale(1.4000000)"><g transform="scale(.25)"><path xmlns="http://www.w3.org/2000/svg" d="M0 0 C4.38 3.25 4.38 3.25 8 7 C12 11 12 11 15.19 12.19 C18.97 13.98 20.67 15.52 23.5 18.5 C26.24 21.39 27.79 22.91 31.5 24.5 C36.01 26.43 38.45 29.4 41.8 32.92 C44.57 35.54 47.46 36.64 51 38 C52.67 39.67 54.33 41.33 56 43 C56.54 43.21 56.54 43.21 59.25 44.25 C63.01 46.01 64.69 47.53 67.5 50.5 C70.24 53.39 71.79 54.91 75.5 56.5 C80.01 58.43 82.45 61.4 85.8 64.92 C88.57 67.54 91.46 68.64 95 70 C96.67 71.67 98.33 73.33 100 75 C101.07 75.41 102.14 75.83 103.25 76.25 C107.82 78.38 110.36 81.29 113.79 84.92 C116.56 87.53 119.47 88.66 123 90 C127.17 95.56 126.46 100.79 126.48 107.48 C126.49 108.8 126.51 110.13 126.52 111.49 C126.57 115.72 126.6 119.96 126.62 124.19 C126.66 128.43 126.7 132.67 126.75 136.92 C126.77 139.56 126.8 142.2 126.81 144.84 C126.89 153.89 126.89 153.89 128 155 C137.35 155.49 137.35 155.49 142 152 C147 154 147 154 150 158 C150.29 162.23 150.4 166.31 150.37 170.54 C150.38 171.84 150.38 173.14 150.39 174.48 C150.4 178.86 150.38 183.24 150.37 187.61 C150.37 190.74 150.38 193.87 150.38 197 C150.39 205.52 150.38 214.04 150.37 222.55 C150.36 231.45 150.36 240.34 150.36 249.24 C150.37 264.18 150.35 279.12 150.34 294.06 C150.32 311.35 150.31 328.65 150.32 345.94 C150.32 362.55 150.32 379.16 150.31 395.77 C150.3 402.85 150.3 409.94 150.3 417.02 C150.31 425.35 150.3 433.68 150.28 442.01 C150.28 445.08 150.28 448.14 150.28 451.21 C150.28 455.38 150.27 459.55 150.26 463.71 C150.26 464.94 150.27 466.17 150.27 467.44 C150.23 475.77 150.23 475.77 148 478 C144.98 478.22 141.97 478.44 138.95 478.56 C136 479 136 479 132 482 C127.91 482.44 123.87 482.5 119.75 482.59 C116 483 116 483 112 486 C106.87 486.45 101.78 486.5 96.62 486.59 C92 487 92 487 88 490 C83.91 490.44 79.87 490.5 75.75 490.59 C72 491 72 491 68 494 C62.87 494.45 57.78 494.5 52.62 494.59 C48 495 48 495 44 498 C39.91 498.44 35.87 498.5 31.75 498.59 C28 499 28 499 24 502 C18.87 502.45 13.78 502.5 8.62 502.59 C4 503 4 503 0 506 C-5.13 506.45 -10.22 506.5 -15.38 506.59 C-20 507 -20 507 -24 510 C-28.09 510.44 -32.13 510.5 -36.25 510.59 C-40 511 -40 511 -44 514 C-49.13 514.45 -54.22 514.5 -59.38 514.59 C-64 515 -64 515 -68 518 C-72.09 518.44 -76.13 518.5 -80.25 518.59 C-84 519 -84 519 -88 522 C-93.13 522.45 -98.22 522.5 -103.38 522.59 C-108 523 -108 523 -112 526 C-117.13 526.45 -122.22 526.5 -127.38 526.59 C-132 527 -132 527 -136 530 C-140.09 530.44 -144.13 530.5 -148.25 530.59 C-152 531 -152 531 -156 534 C-161.13 534.45 -166.22 534.5 -171.38 534.59 C-176 535 -176 535 -180 538 C-184.09 538.44 -188.13 538.5 -192.25 538.59 C-196 539 -196 539 -200 542 C-205.13 542.45 -210.22 542.5 -215.38 542.59 C-220 543 -220 543 -224 546 C-228.09 546.44 -232.13 546.5 -236.25 546.59 C-240 547 -240 547 -244 550 C-248.26 550.36 -248.26 550.36 -253.12 550.31 C-254.74 550.31 -256.35 550.3 -258.01 550.3 C-262 550 -262 550 -264 548 C-264.22 544.98 -264.44 541.97 -264.56 538.95 C-265 536 -265 536 -268 532 C-268.4 529.34 -268.74 526.67 -269 524 C-270 523 -270 523 -274.81 522.75 C-280 523 -280 523 -284 526 C-289.13 526.38 -294.18 526.48 -299.31 526.53 C-307.6 526.7 -307.6 526.7 -312 530 C-317.13 530.38 -322.18 530.48 -327.31 530.53 C-335.6 530.7 -335.6 530.7 -340 534 C-341.65 533.34 -343.3 532.68 -345 532 C-345.58 531.78 -345.58 531.78 -348.53 530.66 C-355.26 526.66 -360.18 521.07 -365.56 515.44 C-367.74 513.16 -369.93 510.88 -372.13 508.62 C-373.09 507.61 -374.05 506.61 -375.04 505.57 C-378 503 -378 503 -381.5 501.5 C-385.62 499.73 -387.82 497.58 -390.91 494.34 C-391.44 493.79 -391.44 493.79 -394.16 491 C-396.39 488.67 -398.61 486.33 -400.84 484 C-401.38 483.45 -401.38 483.45 -404.09 480.66 C-404.58 480.15 -404.58 480.15 -407.02 477.59 C-410 475 -410 475 -413.5 473.5 C-417.64 471.73 -419.86 469.55 -422.98 466.31 C-424.06 465.2 -425.14 464.09 -426.26 462.95 C-427.37 461.79 -428.48 460.63 -429.62 459.44 C-431.84 457.14 -434.06 454.84 -436.29 452.56 C-437.27 451.54 -438.24 450.52 -439.25 449.47 C-442 447 -442 447 -447 445 C-449.35 442.65 -448.14 438.02 -448.15 434.84 C-448.15 433.5 -448.15 432.16 -448.15 430.78 C-448.15 429.37 -448.15 427.96 -448.16 426.5 C-448.17 421.74 -448.17 416.97 -448.18 412.2 C-448.18 408.8 -448.19 405.4 -448.2 402 C-448.21 392.73 -448.22 383.46 -448.23 374.2 C-448.24 368.41 -448.24 362.63 -448.25 356.84 C-448.27 340.84 -448.28 324.84 -448.29 308.84 C-448.29 304.68 -448.29 300.53 -448.3 296.37 C-448.3 295.34 -448.3 294.31 -448.3 293.24 C-448.3 276.5 -448.33 259.77 -448.36 243.03 C-448.4 225.86 -448.41 208.69 -448.42 191.52 C-448.42 181.87 -448.43 172.22 -448.45 162.58 C-448.48 153.5 -448.48 144.43 -448.47 135.36 C-448.47 132.03 -448.48 128.69 -448.49 125.35 C-448.51 120.81 -448.5 116.27 -448.49 111.73 C-448.5 110.4 -448.51 109.07 -448.52 107.7 C-448.51 106.48 -448.5 105.27 -448.49 104.02 C-448.5 102.97 -448.5 101.92 -448.5 100.84 C-447.87 97.27 -446.48 95.59 -444 93 C-440.53 91.27 -436.75 91.65 -432.95 91.48 C-430 91 -430 91 -426 88 C-421.91 87.56 -417.87 87.5 -413.75 87.41 C-410 87 -410 87 -406 84 C-401.91 83.56 -397.87 83.5 -393.75 83.41 C-390 83 -390 83 -386 80 C-381.91 79.56 -377.87 79.5 -373.75 79.41 C-370 79 -370 79 -366 76 C-362.94 75.57 -359.96 75.5 -356.88 75.41 C-354 75 -354 75 -350 72 C-345.91 71.56 -341.87 71.5 -337.75 71.41 C-334 71 -334 71 -330 68 C-325.91 67.56 -321.87 67.5 -317.75 67.41 C-314 67 -314 67 -310 64 C-306.94 63.57 -303.96 63.5 -300.88 63.41 C-298 63 -298 63 -294 60 C-289.91 59.56 -285.87 59.5 -281.75 59.41 C-278 59 -278 59 -274 56 C-269.91 55.56 -265.87 55.5 -261.75 55.41 C-258 55 -258 55 -254 52 C-249.91 51.56 -245.87 51.5 -241.75 51.41 C-238 51 -238 51 -234 48 C-230.94 47.57 -227.96 47.5 -224.88 47.41 C-222 47 -222 47 -218 44 C-213.91 43.56 -209.87 43.5 -205.75 43.41 C-202 43 -202 43 -198 40 C-193.91 39.56 -189.87 39.5 -185.75 39.41 C-182 39 -182 39 -178 36 C-174.94 35.57 -171.96 35.5 -168.88 35.41 C-166 35 -166 35 -162 32 C-157.91 31.56 -153.87 31.5 -149.75 31.41 C-146 31 -146 31 -142 28 C-137.91 27.56 -133.87 27.5 -129.75 27.41 C-126 27 -126 27 -122 24 C-118.94 23.57 -115.96 23.5 -112.88 23.41 C-110 23 -110 23 -106 20 C-101.91 19.56 -97.87 19.5 -93.75 19.41 C-90 19 -90 19 -86 16 C-81.91 15.56 -77.87 15.5 -73.75 15.41 C-70 15 -70 15 -66 12 C-61.91 11.56 -57.87 11.5 -53.75 11.41 C-50 11 -50 11 -46 8 C-42.94 7.57 -39.96 7.5 -36.88 7.41 C-34 7 -34 7 -30 4 C-25.91 3.56 -21.87 3.5 -17.75 3.41 C-10.68 2.64 -7.95 -0.95 0 0 Z M-40 61 C-43.06 61.43 -46.04 61.5 -49.12 61.59 C-52 62 -52 62 -56 65 C-60.09 65.44 -64.13 65.5 -68.25 65.59 C-72 66 -72 66 -76 69 C-80.09 69.44 -84.13 69.5 -88.25 69.59 C-92 70 -92 70 -96 73 C-99.06 73.43 -102.04 73.5 -105.12 73.59 C-108 74 -108 74 -112 77 C-116.09 77.44 -120.13 77.5 -124.25 77.59 C-128 78 -128 78 -132 81 C-136.09 81.44 -140.13 81.5 -144.25 81.59 C-148 82 -148 82 -152 85 C-156.09 85.44 -160.13 85.5 -164.25 85.59 C-168 86 -168 86 -172 89 C-175.06 89.43 -178.04 89.5 -181.12 89.59 C-184 90 -184 90 -188 93 C-192.09 93.44 -196.13 93.5 -200.25 93.59 C-204 94 -204 94 -208 97 C-212.09 97.44 -216.13 97.5 -220.25 97.59 C-224 98 -224 98 -228 101 C-231.06 101.43 -234.04 101.5 -237.12 101.59 C-240 102 -240 102 -244 105 C-248.09 105.44 -252.13 105.5 -256.25 105.59 C-260 106 -260 106 -264 109 C-268.09 109.44 -272.13 109.5 -276.25 109.59 C-280 110 -280 110 -284 113 C-287.06 113.43 -290.04 113.5 -293.12 113.59 C-296 114 -296 114 -300 117 C-304.09 117.44 -308.13 117.5 -312.25 117.59 C-316 118 -316 118 -320 121 C-324.09 121.44 -328.13 121.5 -332.25 121.59 C-336 122 -336 122 -340 125 C-344.09 125.44 -348.13 125.5 -352.25 125.59 C-356 126 -356 126 -360 129 C-363.06 129.43 -366.04 129.5 -369.12 129.59 C-372 130 -372 130 -376 133 C-378.95 133.44 -378.95 133.44 -382.12 133.56 C-388 134 -388 134 -390 136 C-390.3 139.12 -390.3 139.12 -390.31 142.88 C-390.33 144.11 -390.35 145.34 -390.36 146.62 C-390 150 -390 150 -387 154 C-386.62 156.96 -386.62 156.96 -386.59 160.38 C-386.57 161.61 -386.55 162.84 -386.53 164.11 C-386.51 166.7 -386.49 169.3 -386.47 171.89 C-386.45 173.12 -386.43 174.36 -386.41 175.62 C-386.4 176.75 -386.39 177.88 -386.38 179.04 C-386 182 -386 182 -383 186 C-382.62 188.96 -382.62 188.96 -382.59 192.38 C-382.57 193.61 -382.55 194.84 -382.53 196.11 C-382.51 198.7 -382.49 201.3 -382.47 203.89 C-382.45 205.12 -382.43 206.36 -382.41 207.62 C-382.4 208.75 -382.39 209.88 -382.38 211.04 C-382 214 -382 214 -379 218 C-378.62 220.96 -378.62 220.96 -378.59 224.38 C-378.57 225.61 -378.55 226.84 -378.53 228.11 C-378.51 230.7 -378.49 233.3 -378.47 235.89 C-378.45 237.12 -378.43 238.36 -378.41 239.62 C-378.4 240.75 -378.39 241.88 -378.38 243.04 C-378 246 -378 246 -375 250 C-374.62 253.33 -374.62 253.33 -374.59 257.25 C-374.57 258.66 -374.55 260.08 -374.53 261.53 C-374.51 264.51 -374.49 267.49 -374.47 270.47 C-374.45 271.88 -374.43 273.29 -374.41 274.75 C-374.4 276.04 -374.39 277.34 -374.38 278.67 C-374 282 -374 282 -371 286 C-370.62 288.96 -370.62 288.96 -370.59 292.38 C-370.57 293.61 -370.55 294.84 -370.53 296.11 C-370.51 298.7 -370.49 301.3 -370.47 303.89 C-370.45 305.12 -370.43 306.36 -370.41 307.62 C-370.4 308.75 -370.39 309.88 -370.38 311.04 C-370 314 -370 314 -367 318 C-366.62 320.96 -366.62 320.96 -366.59 324.38 C-366.57 325.61 -366.55 326.84 -366.53 328.11 C-366.51 330.7 -366.49 333.3 -366.47 335.89 C-366.45 337.12 -366.43 338.36 -366.41 339.62 C-366.4 340.75 -366.39 341.88 -366.38 343.04 C-366 346 -366 346 -363 350 C-362.62 353.33 -362.62 353.33 -362.59 357.25 C-362.57 358.66 -362.55 360.08 -362.53 361.53 C-362.51 364.51 -362.49 367.49 -362.47 370.47 C-362.45 371.88 -362.43 373.29 -362.41 374.75 C-362.4 376.04 -362.39 377.34 -362.38 378.67 C-362 382 -362 382 -359 386 C-358.62 388.96 -358.62 388.96 -358.59 392.38 C-358.57 393.61 -358.55 394.84 -358.53 396.11 C-358.51 398.7 -358.49 401.3 -358.47 403.89 C-358.45 405.12 -358.43 406.36 -358.41 407.62 C-358.4 408.75 -358.39 409.88 -358.38 411.04 C-358 414 -358 414 -355 418 C-354.62 420.96 -354.62 420.96 -354.59 424.38 C-354.57 425.61 -354.55 426.84 -354.53 428.11 C-354.51 430.7 -354.49 433.3 -354.47 435.89 C-354.45 437.12 -354.43 438.36 -354.41 439.62 C-354.4 440.75 -354.39 441.88 -354.38 443.04 C-354 446 -354 446 -351 450 C-350.56 453.82 -350.56 453.82 -350.44 458.12 C-350.21 465.79 -350.21 465.79 -348 468 C-345.05 468.22 -342.09 468.31 -339.12 468.31 C-337.52 468.33 -335.91 468.35 -334.26 468.36 C-330 468 -330 468 -326 465 C-324.35 464.34 -322.7 463.68 -321 463 C-318.47 460.47 -319.77 452.86 -319.75 449.19 C-319.73 447.99 -319.71 446.78 -319.69 445.54 C-319.68 444.39 -319.68 443.23 -319.67 442.04 C-319.66 440.98 -319.65 439.92 -319.64 438.82 C-320 436 -320 436 -323 432 C-323.38 429.04 -323.38 429.04 -323.41 425.62 C-323.43 424.39 -323.45 423.16 -323.47 421.89 C-323.49 419.3 -323.51 416.7 -323.53 414.11 C-323.55 412.88 -323.57 411.64 -323.59 410.38 C-323.6 409.25 -323.61 408.12 -323.62 406.96 C-324 404 -324 404 -327 400 C-327.38 397.04 -327.38 397.04 -327.41 393.62 C-327.43 392.39 -327.45 391.16 -327.47 389.89 C-327.49 387.3 -327.51 384.7 -327.53 382.11 C-327.55 380.88 -327.57 379.64 -327.59 378.38 C-327.6 377.25 -327.61 376.12 -327.62 374.96 C-328 372 -328 372 -331 368 C-331.38 365.04 -331.38 365.04 -331.41 361.62 C-331.43 360.39 -331.45 359.16 -331.47 357.89 C-331.49 355.3 -331.51 352.7 -331.53 350.11 C-331.55 348.88 -331.57 347.64 -331.59 346.38 C-331.6 345.25 -331.61 344.12 -331.62 342.96 C-332 340 -332 340 -335 336 C-335.38 333.04 -335.38 333.04 -335.41 329.62 C-335.43 328.39 -335.45 327.16 -335.47 325.89 C-335.49 323.3 -335.51 320.7 -335.53 318.11 C-335.55 316.88 -335.57 315.64 -335.59 314.38 C-335.6 313.25 -335.61 312.12 -335.62 310.96 C-336 308 -336 308 -339 304 C-339.38 301.04 -339.38 301.04 -339.41 297.62 C-339.43 296.39 -339.45 295.16 -339.47 293.89 C-339.49 291.3 -339.51 288.7 -339.53 286.11 C-339.55 284.88 -339.57 283.64 -339.59 282.38 C-339.6 281.25 -339.61 280.12 -339.62 278.96 C-340 276 -340 276 -343 272 C-343.38 269.04 -343.38 269.04 -343.41 265.62 C-343.43 264.39 -343.45 263.16 -343.47 261.89 C-343.49 259.3 -343.51 256.7 -343.53 254.11 C-343.55 252.88 -343.57 251.64 -343.59 250.38 C-343.6 249.25 -343.61 248.12 -343.62 246.96 C-344 244 -344 244 -347 240 C-347.38 237.04 -347.38 237.04 -347.41 233.62 C-347.43 232.39 -347.45 231.16 -347.47 229.89 C-347.49 227.3 -347.51 224.7 -347.53 222.11 C-347.55 220.88 -347.57 219.64 -347.59 218.38 C-347.6 217.25 -347.61 216.12 -347.62 214.96 C-348 212 -348 212 -351 208 C-351.38 205.04 -351.38 205.04 -351.41 201.62 C-351.43 200.39 -351.45 199.16 -351.47 197.89 C-351.49 195.3 -351.51 192.7 -351.53 190.11 C-351.55 188.88 -351.57 187.64 -351.59 186.38 C-351.6 185.25 -351.61 184.12 -351.62 182.96 C-352 180 -352 180 -355 176 C-355.89 167.22 -355.89 167.22 -352.81 163 C-350 161 -350 161 -345 159 C-344.01 158.34 -343.02 157.68 -342 157 C-337.93 156.66 -333.87 156.56 -329.79 156.44 C-326 156 -326 156 -322 153 C-317.91 152.56 -313.87 152.5 -309.75 152.41 C-306 152 -306 152 -302 149 C-298.94 148.57 -295.96 148.5 -292.88 148.41 C-290 148 -290 148 -286 145 C-281.91 144.56 -277.87 144.5 -273.75 144.41 C-270 144 -270 144 -266 141 C-261.91 140.56 -257.87 140.5 -253.75 140.41 C-250 140 -250 140 -246 137 C-242.94 136.57 -239.96 136.5 -236.88 136.41 C-234 136 -234 136 -230 133 C-225.91 132.56 -221.87 132.5 -217.75 132.41 C-214 132 -214 132 -210 129 C-205.91 128.56 -201.87 128.5 -197.75 128.41 C-194 128 -194 128 -190 125 C-186.94 124.57 -183.96 124.5 -180.88 124.41 C-178 124 -178 124 -174 121 C-169.91 120.56 -165.87 120.5 -161.75 120.41 C-158 120 -158 120 -154 117 C-149.91 116.56 -145.87 116.5 -141.75 116.41 C-138 116 -138 116 -134 113 C-130.94 112.57 -127.96 112.5 -124.88 112.41 C-122 112 -122 112 -118 109 C-113.91 108.56 -109.87 108.5 -105.75 108.41 C-102 108 -102 108 -98 105 C-93.91 104.56 -89.87 104.5 -85.75 104.41 C-82 104 -82 104 -78 101 C-74.94 100.57 -71.96 100.5 -68.88 100.41 C-66 100 -66 100 -62 97 C-57.91 96.56 -53.87 96.5 -49.75 96.41 C-46 96 -46 96 -42 93 C-37.91 92.56 -33.87 92.5 -29.75 92.41 C-26 92 -26 92 -22 89 C-18.94 88.57 -15.96 88.5 -12.88 88.41 C-10 88 -10 88 -6 85 C-2.11 84.49 -2.11 84.49 2.25 84.31 C3.7 84.25 5.15 84.18 6.64 84.11 C7.19 84.09 7.19 84.09 10 84 C10.33 82.35 10.66 80.7 11 79 C8.49 75.71 6.55 74.2 2.66 72.77 C-1.74 70.64 -3.54 68.13 -6.56 64.31 C-10.99 59.67 -13.19 58.14 -19.59 57.04 C-34.58 56.94 -34.58 56.94 -40 61 Z M8 97 C3.91 97.44 -0.13 97.5 -4.25 97.59 C-8 98 -8 98 -12 101 C-16.09 101.44 -20.13 101.5 -24.25 101.59 C-28 102 -28 102 -32 105 C-35.06 105.43 -38.04 105.5 -41.12 105.59 C-44 106 -44 106 -48 109 C-52.09 109.44 -56.13 109.5 -60.25 109.59 C-64 110 -64 110 -68 113 C-72.09 113.44 -76.13 113.5 -80.25 113.59 C-84 114 -84 114 -88 117 C-91.06 117.43 -94.04 117.5 -97.12 117.59 C-100 118 -100 118 -104 121 C-108.09 121.44 -112.13 121.5 -116.25 121.59 C-120 122 -120 122 -124 125 C-128.09 125.44 -132.13 125.5 -136.25 125.59 C-140 126 -140 126 -144 129 C-147.06 129.43 -150.04 129.5 -153.12 129.59 C-156 130 -156 130 -160 133 C-164.09 133.44 -168.13 133.5 -172.25 133.59 C-176 134 -176 134 -180 137 C-184.09 137.44 -188.13 137.5 -192.25 137.59 C-196 138 -196 138 -200 141 C-203.06 141.43 -206.04 141.5 -209.12 141.59 C-212 142 -212 142 -216 145 C-220.09 145.44 -224.13 145.5 -228.25 145.59 C-232 146 -232 146 -236 149 C-240.09 149.44 -244.13 149.5 -248.25 149.59 C-252 150 -252 150 -256 153 C-259.06 153.43 -262.04 153.5 -265.12 153.59 C-268 154 -268 154 -272 157 C-276.09 157.44 -280.13 157.5 -284.25 157.59 C-288 158 -288 158 -292 161 C-296.09 161.44 -300.13 161.5 -304.25 161.59 C-308 162 -308 162 -312 165 C-315.06 165.43 -318.04 165.5 -321.12 165.59 C-324 166 -324 166 -328 169 C-330.95 169.44 -330.95 169.44 -334.12 169.56 C-340 170 -340 170 -342 172 C-342.59 181.21 -342.59 181.21 -339 186 C-338.62 188.96 -338.62 188.96 -338.59 192.38 C-338.57 193.61 -338.55 194.84 -338.53 196.11 C-338.51 198.7 -338.49 201.3 -338.47 203.89 C-338.45 205.12 -338.43 206.36 -338.41 207.62 C-338.4 208.75 -338.39 209.88 -338.38 211.04 C-338 214 -338 214 -335 218 C-334.62 220.96 -334.62 220.96 -334.59 224.38 C-334.57 225.61 -334.55 226.84 -334.53 228.11 C-334.51 230.7 -334.49 233.3 -334.47 235.89 C-334.45 237.12 -334.43 238.36 -334.41 239.62 C-334.4 240.75 -334.39 241.88 -334.38 243.04 C-334 246 -334 246 -331 250 C-330.62 252.96 -330.62 252.96 -330.59 256.38 C-330.57 257.61 -330.55 258.84 -330.53 260.11 C-330.51 262.7 -330.49 265.3 -330.47 267.89 C-330.45 269.12 -330.43 270.36 -330.41 271.62 C-330.4 272.75 -330.39 273.88 -330.38 275.04 C-330 278 -330 278 -327 282 C-326.62 284.96 -326.62 284.96 -326.59 288.38 C-326.57 289.61 -326.55 290.84 -326.53 292.11 C-326.51 294.7 -326.49 297.3 -326.47 299.89 C-326.45 301.12 -326.43 302.36 -326.41 303.62 C-326.4 304.75 -326.39 305.88 -326.38 307.04 C-326 310 -326 310 -323 314 C-322.62 316.96 -322.62 316.96 -322.59 320.38 C-322.57 321.61 -322.55 322.84 -322.53 324.11 C-322.51 326.7 -322.49 329.3 -322.47 331.89 C-322.45 333.12 -322.43 334.36 -322.41 335.62 C-322.4 336.75 -322.39 337.88 -322.38 339.04 C-322 342 -322 342 -319 346 C-318.62 348.96 -318.62 348.96 -318.59 352.38 C-318.57 353.61 -318.55 354.84 -318.53 356.11 C-318.51 358.7 -318.49 361.3 -318.47 363.89 C-318.45 365.12 -318.43 366.36 -318.41 367.62 C-318.4 368.75 -318.39 369.88 -318.38 371.04 C-318 374 -318 374 -315 378 C-314.62 380.96 -314.62 380.96 -314.59 384.38 C-314.57 385.61 -314.55 386.84 -314.53 388.11 C-314.51 390.7 -314.49 393.3 -314.47 395.89 C-314.45 397.12 -314.43 398.36 -314.41 399.62 C-314.4 400.75 -314.39 401.88 -314.38 403.04 C-314 406 -314 406 -311 410 C-310.62 412.96 -310.62 412.96 -310.59 416.38 C-310.57 417.61 -310.55 418.84 -310.53 420.11 C-310.51 422.7 -310.49 425.3 -310.47 427.89 C-310.45 429.12 -310.43 430.36 -310.41 431.62 C-310.4 432.75 -310.39 433.88 -310.38 435.04 C-310 438 -310 438 -307 442 C-306.62 444.96 -306.62 444.96 -306.59 448.38 C-306.57 449.61 -306.55 450.84 -306.53 452.11 C-306.51 454.7 -306.49 457.3 -306.47 459.89 C-306.45 461.12 -306.43 462.36 -306.41 463.62 C-306.4 464.75 -306.39 465.88 -306.38 467.04 C-306 470 -306 470 -303 474 C-302.56 477.82 -302.56 477.82 -302.44 482.12 C-302.21 489.79 -302.21 489.79 -300 492 C-297.05 492.22 -294.09 492.31 -291.12 492.31 C-289.52 492.33 -287.91 492.35 -286.26 492.36 C-282 492 -282 492 -278 489 C-276.35 488.34 -274.7 487.68 -273 487 C-271.08 485.08 -271.78 481.74 -271.75 479.19 C-271.72 477.94 -271.7 476.7 -271.67 475.42 C-272 472 -272 472 -275 468 C-275.38 465.04 -275.38 465.04 -275.41 461.62 C-275.43 460.39 -275.45 459.16 -275.47 457.89 C-275.49 455.3 -275.51 452.7 -275.53 450.11 C-275.55 448.88 -275.57 447.64 -275.59 446.38 C-275.6 445.25 -275.61 444.12 -275.62 442.96 C-276 440 -276 440 -279 436 C-279.38 433.04 -279.38 433.04 -279.41 429.62 C-279.43 428.39 -279.45 427.16 -279.47 425.89 C-279.49 423.3 -279.51 420.7 -279.53 418.11 C-279.55 416.88 -279.57 415.64 -279.59 414.38 C-279.6 413.25 -279.61 412.12 -279.62 410.96 C-280 408 -280 408 -283 404 C-283.38 401.04 -283.38 401.04 -283.41 397.62 C-283.43 396.39 -283.45 395.16 -283.47 393.89 C-283.49 391.3 -283.51 388.7 -283.53 386.11 C-283.55 384.88 -283.57 383.64 -283.59 382.38 C-283.6 381.25 -283.61 380.12 -283.62 378.96 C-284 376 -284 376 -287 372 C-287.38 369.04 -287.38 369.04 -287.41 365.62 C-287.43 364.39 -287.45 363.16 -287.47 361.89 C-287.49 359.3 -287.51 356.7 -287.53 354.11 C-287.55 352.88 -287.57 351.64 -287.59 350.38 C-287.6 349.25 -287.61 348.12 -287.62 346.96 C-288 344 -288 344 -291 340 C-291.38 337.04 -291.38 337.04 -291.41 333.62 C-291.43 332.39 -291.45 331.16 -291.47 329.89 C-291.49 327.3 -291.51 324.7 -291.53 322.11 C-291.55 320.88 -291.57 319.64 -291.59 318.38 C-291.6 317.25 -291.61 316.12 -291.62 314.96 C-292 312 -292 312 -295 308 C-295.38 305.04 -295.38 305.04 -295.41 301.62 C-295.43 300.39 -295.45 299.16 -295.47 297.89 C-295.49 295.3 -295.51 292.7 -295.53 290.11 C-295.55 288.88 -295.57 287.64 -295.59 286.38 C-295.6 285.25 -295.61 284.12 -295.62 282.96 C-296 280 -296 280 -299 276 C-299.38 273.04 -299.38 273.04 -299.41 269.62 C-299.43 268.39 -299.45 267.16 -299.47 265.89 C-299.49 263.3 -299.51 260.7 -299.53 258.11 C-299.55 256.88 -299.57 255.64 -299.59 254.38 C-299.6 253.25 -299.61 252.12 -299.62 250.96 C-300 248 -300 248 -303 244 C-303.38 241.04 -303.38 241.04 -303.41 237.62 C-303.43 236.39 -303.45 235.16 -303.47 233.89 C-303.49 231.3 -303.51 228.7 -303.53 226.11 C-303.55 224.88 -303.57 223.64 -303.59 222.38 C-303.6 221.25 -303.61 220.12 -303.62 218.96 C-304 216 -304 216 -307 212 C-307.89 203.22 -307.89 203.22 -304.81 199 C-302 197 -302 197 -297 195 C-296.01 194.34 -295.02 193.68 -294 193 C-289.93 192.66 -285.87 192.56 -281.79 192.44 C-278 192 -278 192 -274 189 C-270.94 188.57 -267.96 188.5 -264.88 188.41 C-262 188 -262 188 -258 185 C-253.91 184.56 -249.87 184.5 -245.75 184.41 C-242 184 -242 184 -238 181 C-234.94 180.57 -231.96 180.5 -228.88 180.41 C-226 180 -226 180 -222 177 C-217.91 176.56 -213.87 176.5 -209.75 176.41 C-206 176 -206 176 -202 173 C-198.94 172.57 -195.96 172.5 -192.88 172.41 C-190 172 -190 172 -186 169 C-182.94 168.57 -179.96 168.5 -176.88 168.41 C-174 168 -174 168 -170 165 C-165.91 164.56 -161.87 164.5 -157.75 164.41 C-154 164 -154 164 -150 161 C-146.94 160.57 -143.96 160.5 -140.88 160.41 C-138 160 -138 160 -134 157 C-129.91 156.56 -125.87 156.5 -121.75 156.41 C-118 156 -118 156 -114 153 C-110.94 152.57 -107.96 152.5 -104.88 152.41 C-102 152 -102 152 -98 149 C-93.91 148.56 -89.87 148.5 -85.75 148.41 C-82 148 -82 148 -78 145 C-74.94 144.57 -71.96 144.5 -68.88 144.41 C-66 144 -66 144 -62 141 C-57.91 140.56 -53.87 140.5 -49.75 140.41 C-46 140 -46 140 -42 137 C-38.94 136.57 -35.96 136.5 -32.88 136.41 C-30 136 -30 136 -26 133 C-22.94 132.57 -19.96 132.5 -16.88 132.41 C-14 132 -14 132 -10 129 C-5.91 128.56 -1.87 128.5 2.25 128.41 C6 128 6 128 10 125 C13.06 124.57 16.04 124.5 19.12 124.41 C22 124 22 124 26 121 C30.06 120.63 34.07 120.62 38.15 120.6 C42 120 42 120 45.07 117.77 C45.7 116.86 46.34 115.94 47 115 C45.14 105.71 37.44 99.37 30 94 C21.93 92.12 14.76 91.93 8 97 Z M36 133 C32.94 133.43 29.96 133.5 26.88 133.59 C24 134 24 134 20 137 C16.94 137.43 13.96 137.5 10.88 137.59 C8 138 8 138 4 141 C-0.09 141.44 -4.13 141.5 -8.25 141.59 C-12 142 -12 142 -16 145 C-19.06 145.43 -22.04 145.5 -25.12 145.59 C-28 146 -28 146 -32 149 C-36.09 149.44 -40.13 149.5 -44.25 149.59 C-48 150 -48 150 -52 153 C-55.06 153.43 -58.04 153.5 -61.12 153.59 C-64 154 -64 154 -68 157 C-72.09 157.44 -76.13 157.5 -80.25 157.59 C-84 158 -84 158 -88 161 C-91.06 161.43 -94.04 161.5 -97.12 161.59 C-100 162 -100 162 -104 165 C-108.09 165.44 -112.13 165.5 -116.25 165.59 C-120 166 -120 166 -124 169 C-127.06 169.43 -130.04 169.5 -133.12 169.59 C-136 170 -136 170 -140 173 C-143.06 173.43 -146.04 173.5 -149.12 173.59 C-152 174 -152 174 -156 177 C-160.09 177.44 -164.13 177.5 -168.25 177.59 C-172 178 -172 178 -176 181 C-179.06 181.43 -182.04 181.5 -185.12 181.59 C-188 182 -188 182 -192 185 C-196.09 185.44 -200.13 185.5 -204.25 185.59 C-208 186 -208 186 -212 189 C-215.06 189.43 -218.04 189.5 -221.12 189.59 C-224 190 -224 190 -228 193 C-232.09 193.44 -236.13 193.5 -240.25 193.59 C-244 194 -244 194 -248 197 C-251.06 197.43 -254.04 197.5 -257.12 197.59 C-260 198 -260 198 -264 201 C-268.09 201.44 -272.13 201.5 -276.25 201.59 C-280 202 -280 202 -284 205 C-286.66 205.36 -289.33 205.7 -292 206 C-294 208 -294 208 -294.31 212.88 C-294 218 -294 218 -291 222 C-290.62 224.96 -290.62 224.96 -290.59 228.38 C-290.57 229.61 -290.55 230.84 -290.53 232.11 C-290.51 234.7 -290.49 237.3 -290.47 239.89 C-290.45 241.12 -290.43 242.36 -290.41 243.62 C-290.4 244.75 -290.39 245.88 -290.38 247.04 C-290 250 -290 250 -287 254 C-286.62 256.96 -286.62 256.96 -286.59 260.38 C-286.57 261.61 -286.55 262.84 -286.53 264.11 C-286.51 266.7 -286.49 269.3 -286.47 271.89 C-286.45 273.12 -286.43 274.36 -286.41 275.62 C-286.4 276.75 -286.39 277.88 -286.38 279.04 C-286 282 -286 282 -283 286 C-282.62 288.96 -282.62 288.96 -282.59 292.38 C-282.57 293.61 -282.55 294.84 -282.53 296.11 C-282.51 298.7 -282.49 301.3 -282.47 303.89 C-282.45 305.12 -282.43 306.36 -282.41 307.62 C-282.4 308.75 -282.39 309.88 -282.38 311.04 C-282 314 -282 314 -279 318 C-278.62 320.96 -278.62 320.96 -278.59 324.38 C-278.57 325.61 -278.55 326.84 -278.53 328.11 C-278.51 330.7 -278.49 333.3 -278.47 335.89 C-278.45 337.12 -278.43 338.36 -278.41 339.62 C-278.4 340.75 -278.39 341.88 -278.38 343.04 C-278 346 -278 346 -275 350 C-274.62 352.96 -274.62 352.96 -274.59 356.38 C-274.57 357.61 -274.55 358.84 -274.53 360.11 C-274.51 362.7 -274.49 365.3 -274.47 367.89 C-274.45 369.12 -274.43 370.36 -274.41 371.62 C-274.4 372.75 -274.39 373.88 -274.38 375.04 C-274 378 -274 378 -271 382 C-270.57 385.02 -270.57 385.02 -270.49 388.52 C-270.45 389.77 -270.42 391.02 -270.38 392.3 C-270.36 393.61 -270.34 394.91 -270.31 396.25 C-270.28 397.57 -270.24 398.88 -270.21 400.24 C-270.13 403.49 -270.06 406.75 -270 410 C-268.35 410.33 -266.7 410.66 -265 411 C-262.59 408.59 -263.82 401.59 -263.81 398.15 C-263.8 396.91 -263.79 395.66 -263.79 394.37 C-263.77 391.66 -263.75 388.94 -263.74 386.22 C-263.72 381.93 -263.69 377.63 -263.66 373.34 C-263.6 364.23 -263.55 355.11 -263.5 346 C-263.44 335.45 -263.38 324.89 -263.31 314.34 C-263.28 310.09 -263.26 305.85 -263.24 301.6 C-263.22 299.02 -263.21 296.43 -263.19 293.85 C-263.19 292.66 -263.18 291.46 -263.18 290.24 C-263.11 282.11 -263.11 282.11 -262 281 C-260.74 280.88 -259.48 280.75 -258.19 280.62 C-254 280 -254 280 -250 277 C-245.91 276.56 -241.87 276.5 -237.75 276.41 C-234 276 -234 276 -230 273 C-225.91 272.56 -221.87 272.5 -217.75 272.41 C-214 272 -214 272 -210 269 C-205.91 268.56 -201.87 268.5 -197.75 268.41 C-194 268 -194 268 -190 265 C-186.94 264.57 -183.96 264.5 -180.88 264.41 C-178 264 -178 264 -174 261 C-172.06 260.9 -170.12 260.79 -168.12 260.69 C-163.56 260.4 -162.26 260.19 -158.44 257.38 C-155.97 253.96 -154.49 250.93 -153 247 C-151.68 244.32 -150.35 241.66 -149 239 C-148.36 237.62 -147.72 236.24 -147.06 234.81 C-145.05 231.09 -142.96 228.96 -140 226 C-138.92 223.7 -137.92 221.37 -137 219 C-135.68 216.33 -134.35 213.66 -133 211 C-132.53 209.89 -132.05 208.77 -131.56 207.62 C-130 205 -130 205 -125 203 C-124.01 202.34 -123.02 201.68 -122 201 C-117.93 200.66 -113.87 200.56 -109.79 200.44 C-106 200 -106 200 -102 197 C-97.91 196.56 -93.87 196.5 -89.75 196.41 C-86 196 -86 196 -82 193 C-76.87 192.55 -71.78 192.5 -66.62 192.41 C-62 192 -62 192 -58 189 C-52.87 188.55 -47.78 188.5 -42.62 188.41 C-38 188 -38 188 -34 185 C-29.91 184.56 -25.87 184.5 -21.75 184.41 C-18 184 -18 184 -14 181 C-8.87 180.55 -3.78 180.5 1.38 180.41 C6 180 6 180 10 177 C14.09 176.56 18.13 176.5 22.25 176.41 C26 176 26 176 30 173 C35.13 172.55 40.22 172.5 45.38 172.41 C50 172 50 172 54 169 C58.09 168.56 62.13 168.5 66.25 168.41 C70 168 70 168 74 165 C77.37 164.68 80.75 164.51 84.12 164.44 C93.79 164.21 93.79 164.21 96 162 C96 156 96 156 93.44 152.81 C90 150 90 150 86.69 148.69 C82.13 146.6 79.62 143.68 76.2 140.08 C73.43 137.46 70.54 136.36 67 135 C66.67 134.58 66.67 134.58 64.99 132.45 C60.48 128.75 56.67 129.41 50.94 129.5 C48.99 129.51 47.04 129.52 45.03 129.53 C40 130 40 130 36 133 Z M-4 321 C-9.13 321.45 -14.22 321.5 -19.38 321.59 C-24 322 -24 322 -28 325 C-33.13 325.45 -38.22 325.5 -43.38 325.59 C-48 326 -48 326 -52 329 C-57.13 329.45 -62.22 329.5 -67.38 329.59 C-72 330 -72 330 -76 333 C-77.65 333.66 -79.3 334.32 -81 335 C-84.11 338.11 -82.17 347.8 -82.19 352.34 C-82.19 353.42 -82.19 354.5 -82.19 355.62 C-82.19 358.92 -82.21 362.22 -82.22 365.52 C-82.23 367.61 -82.23 369.69 -82.23 371.78 C-82.23 373.69 -82.24 375.6 -82.24 377.57 C-82 382 -82 382 -80 384 C-76.34 384.23 -72.78 384.32 -69.12 384.31 C-68.14 384.32 -68.14 384.32 -63.13 384.36 C-58 384 -58 384 -54 381 C-48.87 380.55 -43.78 380.5 -38.62 380.41 C-34 380 -34 380 -30 377 C-24.87 376.55 -19.78 376.5 -14.62 376.41 C-10 376 -10 376 -6 373 C-2.18 372.56 -2.18 372.56 2.12 372.44 C9.79 372.21 9.79 372.21 12 370 C12.2 366.29 12.28 362.65 12.27 358.94 C12.27 357.84 12.27 356.73 12.27 355.6 C12.27 353.26 12.27 350.93 12.26 348.6 C12.25 345.01 12.26 341.43 12.27 337.85 C12.27 335.59 12.27 333.33 12.27 331.06 C12.27 329.99 12.27 328.91 12.28 327.8 C12.23 320.23 12.23 320.23 10 318 C0.79 317.41 0.79 317.41 -4 321 Z " fill="#272823" transform="translate(469,21)" />
</g><g transform="scale(.25)"><path xmlns="http://www.w3.org/2000/svg" d="M0 0 C1.32 0 2.64 0 4 0 C4 1.32 4 2.64 4 4 C2.68 4 1.36 4 0 4 C0 2.68 0 1.36 0 0 Z " fill="#F7F5EE" transform="translate(468,20)" />
<path xmlns="http://www.w3.org/2000/svg" d="M0 0 C1.32 0 2.64 0 4 0 C4 1.32 4 2.64 4 4 C2.68 4 1.36 4 0 4 C0 2.68 0 1.36 0 0 Z " fill="#F7F5EE" transform="translate(436,24)" />
<path xmlns="http://www.w3.org/2000/svg" d="M0 0 C1.32 0 2.64 0 4 0 C4 1.32 4 2.64 4 4 C2.68 4 1.36 4 0 4 C0 2.68 0 1.36 0 0 Z " fill="#F7F5EE" transform="translate(484,32)" />
<path xmlns="http://www.w3.org/2000/svg" d="M0 0 C1.32 0 2.64 0 4 0 C4 1.32 4 2.64 4 4 C2.68 4 1.36 4 0 4 C0 2.68 0 1.36 0 0 Z " fill="#F7F5EE" transform="translate(380,36)" />
<path xmlns="http://www.w3.org/2000/svg" d="M0 0 C1.32 0 2.64 0 4 0 C4 1.32 4 2.64 4 4 C2.68 4 1.36 4 0 4 C0 2.68 0 1.36 0 0 Z " fill="#F7F5EE" transform="translate(360,40)" />
<path xmlns="http://www.w3.org/2000/svg" d="M0 0 C1.32 0 2.64 0 4 0 C4 1.32 4 2.64 4 4 C2.68 4 1.36 4 0 4 C0 2.68 0 1.36 0 0 Z " fill="#F7F5EE" transform="translate(324,48)" />
<path xmlns="http://www.w3.org/2000/svg" d="M0 0 C1.32 0 2.64 0 4 0 C4 1.32 4 2.64 4 4 C2.68 4 1.36 4 0 4 C0 2.68 0 1.36 0 0 Z " fill="#F7F5EE" transform="translate(304,52)" />
<path xmlns="http://www.w3.org/2000/svg" d="M0 0 C1.32 0 2.64 0 4 0 C4 1.32 4 2.64 4 4 C2.68 4 1.36 4 0 4 C0 2.68 0 1.36 0 0 Z " fill="#F7F5EE" transform="translate(248,64)" />
<path xmlns="http://www.w3.org/2000/svg" d="M0 0 C1.32 0 2.64 0 4 0 C4 1.32 4 2.64 4 4 C2.68 4 1.36 4 0 4 C0 2.68 0 1.36 0 0 Z " fill="#F7F5EE" transform="translate(528,64)" />
<path xmlns="http://www.w3.org/2000/svg" d="M0 0 C1.32 0 2.64 0 4 0 C4 1.32 4 2.64 4 4 C2.68 4 1.36 4 0 4 C0 2.68 0 1.36 0 0 Z " fill="#F7F5EE" transform="translate(192,76)" />
<path xmlns="http://www.w3.org/2000/svg" d="M0 0 C1.32 0 2.64 0 4 0 C4 1.32 4 2.64 4 4 C2.68 4 1.36 4 0 4 C0 2.68 0 1.36 0 0 Z " fill="#F7F5EE" transform="translate(544,76)" />
<path xmlns="http://www.w3.org/2000/svg" d="M0 0 C1.32 0 2.64 0 4 0 C4 1.32 4 2.64 4 4 C2.68 4 1.36 4 0 4 C0 2.68 0 1.36 0 0 Z " fill="#F7F5EE" transform="translate(172,80)" />
<path xmlns="http://www.w3.org/2000/svg" d="M0 0 C1.32 0 2.64 0 4 0 C4 1.32 4 2.64 4 4 C2.68 4 1.36 4 0 4 C0 2.68 0 1.36 0 0 Z " fill="#F7F5EE" transform="translate(116,92)" />
<path xmlns="http://www.w3.org/2000/svg" d="M0 0 C1.32 0 2.64 0 4 0 C4 1.32 4 2.64 4 4 C2.68 4 1.36 4 0 4 C0 2.68 0 1.36 0 0 Z " fill="#F7F5EE" transform="translate(468,92)" />
<path xmlns="http://www.w3.org/2000/svg" d="M0 0 C1.32 0 2.64 0 4 0 C4 1.32 4 2.64 4 4 C2.68 4 1.36 4 0 4 C0 2.68 0 1.36 0 0 Z " fill="#F7F5EE" transform="translate(356,96)" />
<path xmlns="http://www.w3.org/2000/svg" d="M0 0 C1.32 0 2.64 0 4 0 C4 1.32 4 2.64 4 4 C2.68 4 1.36 4 0 4 C0 2.68 0 1.36 0 0 Z " fill="#F7F5EE" transform="translate(572,96)" />
<path xmlns="http://www.w3.org/2000/svg" d="M0 0 C1.32 0 2.64 0 4 0 C4 1.32 4 2.64 4 4 C2.68 4 1.36 4 0 4 C0 2.68 0 1.36 0 0 Z " fill="#F7F5EE" transform="translate(60,104)" />
<path xmlns="http://www.w3.org/2000/svg" d="M0 0 C1.32 0 2.64 0 4 0 C4 1.32 4 2.64 4 4 C2.68 4 1.36 4 0 4 C0 2.68 0 1.36 0 0 Z " fill="#F7F5EE" transform="translate(460,104)" />
<path xmlns="http://www.w3.org/2000/svg" d="M0 0 C1.32 0 2.64 0 4 0 C4 1.32 4 2.64 4 4 C2.68 4 1.36 4 0 4 C0 2.68 0 1.36 0 0 Z " fill="#F7F5EE" transform="translate(40,108)" />
<path xmlns="http://www.w3.org/2000/svg" d="M0 0 C1.32 0 2.64 0 4 0 C4 1.32 4 2.64 4 4 C2.68 4 1.36 4 0 4 C0 2.68 0 1.36 0 0 Z " fill="#F7F5EE" transform="translate(588,108)" />
<path xmlns="http://www.w3.org/2000/svg" d="M0 0 C1.32 0 2.64 0 4 0 C4 1.32 4 2.64 4 4 C2.68 4 1.36 4 0 4 C0 2.68 0 1.36 0 0 Z " fill="#F7F5EE" transform="translate(404,116)" />
<path xmlns="http://www.w3.org/2000/svg" d="M0 0 C1.32 0 2.64 0 4 0 C4 1.32 4 2.64 4 4 C2.68 4 1.36 4 0 4 C0 2.68 0 1.36 0 0 Z " fill="#F7F5EE" transform="translate(476,116)" />
<path xmlns="http://www.w3.org/2000/svg" d="M0 0 C1.32 0 2.64 0 4 0 C4 1.32 4 2.64 4 4 C2.68 4 1.36 4 0 4 C0 2.68 0 1.36 0 0 Z " fill="#F7F5EE" transform="translate(224,124)" />
<path xmlns="http://www.w3.org/2000/svg" d="M0 0 C1.32 0 2.64 0 4 0 C4 1.32 4 2.64 4 4 C2.68 4 1.36 4 0 4 C0 2.68 0 1.36 0 0 Z " fill="#F7F5EE" transform="translate(348,128)" />
<path xmlns="http://www.w3.org/2000/svg" d="M0 0 C1.32 0 2.64 0 4 0 C4 1.32 4 2.64 4 4 C2.68 4 1.36 4 0 4 C0 2.68 0 1.36 0 0 Z " fill="#F7F5EE" transform="translate(420,128)" />
<path xmlns="http://www.w3.org/2000/svg" d="M0 0 C1.32 0 2.64 0 4 0 C4 1.32 4 2.64 4 4 C2.68 4 1.36 4 0 4 C0 2.68 0 1.36 0 0 Z " fill="#F7F5EE" transform="translate(168,136)" />
<path xmlns="http://www.w3.org/2000/svg" d="M0 0 C1.32 0 2.64 0 4 0 C4 1.32 4 2.64 4 4 C2.68 4 1.36 4 0 4 C0 2.68 0 1.36 0 0 Z " fill="#F7F5EE" transform="translate(292,140)" />
<path xmlns="http://www.w3.org/2000/svg" d="M0 0 C1.32 0 2.64 0 4 0 C4 1.32 4 2.64 4 4 C2.68 4 1.36 4 0 4 C0 2.68 0 1.36 0 0 Z " fill="#F7F5EE" transform="translate(364,140)" />
<path xmlns="http://www.w3.org/2000/svg" d="M0 0 C1.32 0 2.64 0 4 0 C4 1.32 4 2.64 4 4 C2.68 4 1.36 4 0 4 C0 2.68 0 1.36 0 0 Z " fill="#F7F5EE" transform="translate(492,140)" />
<path xmlns="http://www.w3.org/2000/svg" d="M0 0 C1.32 0 2.64 0 4 0 C4 1.32 4 2.64 4 4 C2.68 4 1.36 4 0 4 C0 2.68 0 1.36 0 0 Z " fill="#F7F5EE" transform="translate(456,148)" />
<path xmlns="http://www.w3.org/2000/svg" d="M0 0 C1.32 0 2.64 0 4 0 C4 1.32 4 2.64 4 4 C2.68 4 1.36 4 0 4 C0 2.68 0 1.36 0 0 Z " fill="#F7F5EE" transform="translate(92,152)" />
<path xmlns="http://www.w3.org/2000/svg" d="M0 0 C1.32 0 2.64 0 4 0 C4 1.32 4 2.64 4 4 C2.68 4 1.36 4 0 4 C0 2.68 0 1.36 0 0 Z " fill="#F7F5EE" transform="translate(236,152)" />
<path xmlns="http://www.w3.org/2000/svg" d="M0 0 C1.32 0 2.64 0 4 0 C4 1.32 4 2.64 4 4 C2.68 4 1.36 4 0 4 C0 2.68 0 1.36 0 0 Z " fill="#F7F5EE" transform="translate(308,152)" />
<path xmlns="http://www.w3.org/2000/svg" d="M0 0 C1.32 0 2.64 0 4 0 C4 1.32 4 2.64 4 4 C2.68 4 1.36 4 0 4 C0 2.68 0 1.36 0 0 Z " fill="#F7F5EE" transform="translate(404,160)" />
<path xmlns="http://www.w3.org/2000/svg" d="M0 0 C1.32 0 2.64 0 4 0 C4 1.32 4 2.64 4 4 C2.68 4 1.36 4 0 4 C0 2.68 0 1.36 0 0 Z " fill="#F7F5EE" transform="translate(472,160)" />
<path xmlns="http://www.w3.org/2000/svg" d="M0 0 C1.32 0 2.64 0 4 0 C4 1.32 4 2.64 4 4 C2.68 4 1.36 4 0 4 C0 2.68 0 1.36 0 0 Z " fill="#F7F5EE" transform="translate(180,164)" />
<path xmlns="http://www.w3.org/2000/svg" d="M0 0 C1.32 0 2.64 0 4 0 C4 1.32 4 2.64 4 4 C2.68 4 1.36 4 0 4 C0 2.68 0 1.36 0 0 Z " fill="#F7F5EE" transform="translate(252,164)" />
<path xmlns="http://www.w3.org/2000/svg" d="M0 0 C1.32 0 2.64 0 4 0 C4 1.32 4 2.64 4 4 C2.68 4 1.36 4 0 4 C0 2.68 0 1.36 0 0 Z " fill="#F7F5EE" transform="translate(368,168)" />
<path xmlns="http://www.w3.org/2000/svg" d="M0 0 C1.32 0 2.64 0 4 0 C4 1.32 4 2.64 4 4 C2.68 4 1.36 4 0 4 C0 2.68 0 1.36 0 0 Z " fill="#F7F5EE" transform="translate(436,168)" />
<path xmlns="http://www.w3.org/2000/svg" d="M0 0 C1.32 0 2.64 0 4 0 C4 1.32 4 2.64 4 4 C2.68 4 1.36 4 0 4 C0 2.68 0 1.36 0 0 Z " fill="#F7F5EE" transform="translate(552,168)" />
<path xmlns="http://www.w3.org/2000/svg" d="M0 0 C1.32 0 2.64 0 4 0 C4 1.32 4 2.64 4 4 C2.68 4 1.36 4 0 4 C0 2.68 0 1.36 0 0 Z " fill="#F7F5EE" transform="translate(612,172)" />
<path xmlns="http://www.w3.org/2000/svg" d="M0 0 C1.32 0 2.64 0 4 0 C4 1.32 4 2.64 4 4 C2.68 4 1.36 4 0 4 C0 2.68 0 1.36 0 0 Z " fill="#F7F5EE" transform="translate(124,176)" />
<path xmlns="http://www.w3.org/2000/svg" d="M0 0 C1.32 0 2.64 0 4 0 C4 1.32 4 2.64 4 4 C2.68 4 1.36 4 0 4 C0 2.68 0 1.36 0 0 Z " fill="#F7F5EE" transform="translate(196,176)" />
<path xmlns="http://www.w3.org/2000/svg" d="M0 0 C1.32 0 2.64 0 4 0 C4 1.32 4 2.64 4 4 C2.68 4 1.36 4 0 4 C0 2.68 0 1.36 0 0 Z " fill="#F7F5EE" transform="translate(332,176)" />
<path xmlns="http://www.w3.org/2000/svg" d="M0 0 C1.32 0 2.64 0 4 0 C4 1.32 4 2.64 4 4 C2.68 4 1.36 4 0 4 C0 2.68 0 1.36 0 0 Z " fill="#F7F5EE" transform="translate(400,176)" />
<path xmlns="http://www.w3.org/2000/svg" d="M0 0 C1.32 0 2.64 0 4 0 C4 1.32 4 2.64 4 4 C2.68 4 1.36 4 0 4 C0 2.68 0 1.36 0 0 Z " fill="#F7F5EE" transform="translate(296,184)" />
<path xmlns="http://www.w3.org/2000/svg" d="M0 0 C1.32 0 2.64 0 4 0 C4 1.32 4 2.64 4 4 C2.68 4 1.36 4 0 4 C0 2.68 0 1.36 0 0 Z " fill="#F7F5EE" transform="translate(364,184)" />
<path xmlns="http://www.w3.org/2000/svg" d="M0 0 C1.32 0 2.64 0 4 0 C4 1.32 4 2.64 4 4 C2.68 4 1.36 4 0 4 C0 2.68 0 1.36 0 0 Z " fill="#F7F5EE" transform="translate(540,184)" />
<path xmlns="http://www.w3.org/2000/svg" d="M0 0 C1.32 0 2.64 0 4 0 C4 1.32 4 2.64 4 4 C2.68 4 1.36 4 0 4 C0 2.68 0 1.36 0 0 Z " fill="#F7F5EE" transform="translate(140,188)" />
<path xmlns="http://www.w3.org/2000/svg" d="M0 0 C1.32 0 2.64 0 4 0 C4 1.32 4 2.64 4 4 C2.68 4 1.36 4 0 4 C0 2.68 0 1.36 0 0 Z " fill="#F7F5EE" transform="translate(496,192)" />
<path xmlns="http://www.w3.org/2000/svg" d="M0 0 C1.32 0 2.64 0 4 0 C4 1.32 4 2.64 4 4 C2.68 4 1.36 4 0 4 C0 2.68 0 1.36 0 0 Z " fill="#F7F5EE" transform="translate(244,196)" />
<path xmlns="http://www.w3.org/2000/svg" d="M0 0 C1.32 0 2.64 0 4 0 C4 1.32 4 2.64 4 4 C2.68 4 1.36 4 0 4 C0 2.68 0 1.36 0 0 Z " fill="#F7F5EE" transform="translate(312,196)" />
<path xmlns="http://www.w3.org/2000/svg" d="M0 0 C1.32 0 2.64 0 4 0 C4 1.32 4 2.64 4 4 C2.68 4 1.36 4 0 4 C0 2.68 0 1.36 0 0 Z " fill="#F7F5EE" transform="translate(452,200)" />
<path xmlns="http://www.w3.org/2000/svg" d="M0 0 C1.32 0 2.64 0 4 0 C4 1.32 4 2.64 4 4 C2.68 4 1.36 4 0 4 C0 2.68 0 1.36 0 0 Z " fill="#F7F5EE" transform="translate(128,204)" />
<path xmlns="http://www.w3.org/2000/svg" d="M0 0 C1.32 0 2.64 0 4 0 C4 1.32 4 2.64 4 4 C2.68 4 1.36 4 0 4 C0 2.68 0 1.36 0 0 Z " fill="#F7F5EE" transform="translate(208,204)" />
<path xmlns="http://www.w3.org/2000/svg" d="M0 0 C1.32 0 2.64 0 4 0 C4 1.32 4 2.64 4 4 C2.68 4 1.36 4 0 4 C0 2.68 0 1.36 0 0 Z " fill="#F7F5EE" transform="translate(276,204)" />
<path xmlns="http://www.w3.org/2000/svg" d="M0 0 C1.32 0 2.64 0 4 0 C4 1.32 4 2.64 4 4 C2.68 4 1.36 4 0 4 C0 2.68 0 1.36 0 0 Z " fill="#F7F5EE" transform="translate(172,212)" />
<path xmlns="http://www.w3.org/2000/svg" d="M0 0 C1.32 0 2.64 0 4 0 C4 1.32 4 2.64 4 4 C2.68 4 1.36 4 0 4 C0 2.68 0 1.36 0 0 Z " fill="#F7F5EE" transform="translate(384,212)" />
<path xmlns="http://www.w3.org/2000/svg" d="M0 0 C1.32 0 2.64 0 4 0 C4 1.32 4 2.64 4 4 C2.68 4 1.36 4 0 4 C0 2.68 0 1.36 0 0 Z " fill="#F7F5EE" transform="translate(204,220)" />
<path xmlns="http://www.w3.org/2000/svg" d="M0 0 C1.32 0 2.64 0 4 0 C4 1.32 4 2.64 4 4 C2.68 4 1.36 4 0 4 C0 2.68 0 1.36 0 0 Z " fill="#F7F5EE" transform="translate(336,224)" />
<path xmlns="http://www.w3.org/2000/svg" d="M0 0 C1.32 0 2.64 0 4 0 C4 1.32 4 2.64 4 4 C2.68 4 1.36 4 0 4 C0 2.68 0 1.36 0 0 Z " fill="#F7F5EE" transform="translate(88,236)" />
<path xmlns="http://www.w3.org/2000/svg" d="M0 0 C1.32 0 2.64 0 4 0 C4 1.32 4 2.64 4 4 C2.68 4 1.36 4 0 4 C0 2.68 0 1.36 0 0 Z " fill="#F7F5EE" transform="translate(132,236)" />
<path xmlns="http://www.w3.org/2000/svg" d="M0 0 C1.32 0 2.64 0 4 0 C4 1.32 4 2.64 4 4 C2.68 4 1.36 4 0 4 C0 2.68 0 1.36 0 0 Z " fill="#F7F5EE" transform="translate(176,240)" />
<path xmlns="http://www.w3.org/2000/svg" d="M0 0 C1.32 0 2.64 0 4 0 C4 1.32 4 2.64 4 4 C2.68 4 1.36 4 0 4 C0 2.68 0 1.36 0 0 Z " fill="#F7F5EE" transform="translate(320,252)" />
<path xmlns="http://www.w3.org/2000/svg" d="M0 0 C1.32 0 2.64 0 4 0 C4 1.32 4 2.64 4 4 C2.68 4 1.36 4 0 4 C0 2.68 0 1.36 0 0 Z " fill="#F7F5EE" transform="translate(92,268)" />
<path xmlns="http://www.w3.org/2000/svg" d="M0 0 C1.32 0 2.64 0 4 0 C4 1.32 4 2.64 4 4 C2.68 4 1.36 4 0 4 C0 2.68 0 1.36 0 0 Z " fill="#F7F5EE" transform="translate(136,268)" />
<path xmlns="http://www.w3.org/2000/svg" d="M0 0 C1.32 0 2.64 0 4 0 C4 1.32 4 2.64 4 4 C2.68 4 1.36 4 0 4 C0 2.68 0 1.36 0 0 Z " fill="#F7F5EE" transform="translate(180,272)" />
<path xmlns="http://www.w3.org/2000/svg" d="M0 0 C1.32 0 2.64 0 4 0 C4 1.32 4 2.64 4 4 C2.68 4 1.36 4 0 4 C0 2.68 0 1.36 0 0 Z " fill="#F7F5EE" transform="translate(292,280)" />
<path xmlns="http://www.w3.org/2000/svg" d="M0 0 C1.32 0 2.64 0 4 0 C4 1.32 4 2.64 4 4 C2.68 4 1.36 4 0 4 C0 2.68 0 1.36 0 0 Z " fill="#F7F5EE" transform="translate(168,296)" />
<path xmlns="http://www.w3.org/2000/svg" d="M0 0 C1.32 0 2.64 0 4 0 C4 1.32 4 2.64 4 4 C2.68 4 1.36 4 0 4 C0 2.68 0 1.36 0 0 Z " fill="#F7F5EE" transform="translate(140,300)" />
<path xmlns="http://www.w3.org/2000/svg" d="M0 0 C1.32 0 2.64 0 4 0 C4 1.32 4 2.64 4 4 C2.68 4 1.36 4 0 4 C0 2.68 0 1.36 0 0 Z " fill="#F7F5EE" transform="translate(184,304)" />
<path xmlns="http://www.w3.org/2000/svg" d="M0 0 C1.32 0 2.64 0 4 0 C4 1.32 4 2.64 4 4 C2.68 4 1.36 4 0 4 C0 2.68 0 1.36 0 0 Z " fill="#F7F5EE" transform="translate(172,328)" />
<path xmlns="http://www.w3.org/2000/svg" d="M0 0 C1.32 0 2.64 0 4 0 C4 1.32 4 2.64 4 4 C2.68 4 1.36 4 0 4 C0 2.68 0 1.36 0 0 Z " fill="#F7F5EE" transform="translate(144,332)" />
<path xmlns="http://www.w3.org/2000/svg" d="M0 0 C1.32 0 2.64 0 4 0 C4 1.32 4 2.64 4 4 C2.68 4 1.36 4 0 4 C0 2.68 0 1.36 0 0 Z " fill="#F7F5EE" transform="translate(100,336)" />
<path xmlns="http://www.w3.org/2000/svg" d="M0 0 C1.32 0 2.64 0 4 0 C4 1.32 4 2.64 4 4 C2.68 4 1.36 4 0 4 C0 2.68 0 1.36 0 0 Z " fill="#F7F5EE" transform="translate(188,336)" />
<path xmlns="http://www.w3.org/2000/svg" d="M0 0 C1.32 0 2.64 0 4 0 C4 1.32 4 2.64 4 4 C2.68 4 1.36 4 0 4 C0 2.68 0 1.36 0 0 Z " fill="#F7F5EE" transform="translate(176,360)" />
<path xmlns="http://www.w3.org/2000/svg" d="M0 0 C1.32 0 2.64 0 4 0 C4 1.32 4 2.64 4 4 C2.68 4 1.36 4 0 4 C0 2.68 0 1.36 0 0 Z " fill="#F7F5EE" transform="translate(148,364)" />
<path xmlns="http://www.w3.org/2000/svg" d="M0 0 C1.32 0 2.64 0 4 0 C4 1.32 4 2.64 4 4 C2.68 4 1.36 4 0 4 C0 2.68 0 1.36 0 0 Z " fill="#F7F5EE" transform="translate(104,368)" />
<path xmlns="http://www.w3.org/2000/svg" d="M0 0 C1.32 0 2.64 0 4 0 C4 1.32 4 2.64 4 4 C2.68 4 1.36 4 0 4 C0 2.68 0 1.36 0 0 Z " fill="#F7F5EE" transform="translate(192,368)" />
<path xmlns="http://www.w3.org/2000/svg" d="M0 0 C1.32 0 2.64 0 4 0 C4 1.32 4 2.64 4 4 C2.68 4 1.36 4 0 4 C0 2.68 0 1.36 0 0 Z " fill="#F7F5EE" transform="translate(180,392)" />
<path xmlns="http://www.w3.org/2000/svg" d="M0 0 C1.32 0 2.64 0 4 0 C4 1.32 4 2.64 4 4 C2.68 4 1.36 4 0 4 C0 2.68 0 1.36 0 0 Z " fill="#F7F5EE" transform="translate(460,392)" />
<path xmlns="http://www.w3.org/2000/svg" d="M0 0 C1.32 0 2.64 0 4 0 C4 1.32 4 2.64 4 4 C2.68 4 1.36 4 0 4 C0 2.68 0 1.36 0 0 Z " fill="#F7F5EE" transform="translate(152,396)" />
<path xmlns="http://www.w3.org/2000/svg" d="M0 0 C1.32 0 2.64 0 4 0 C4 1.32 4 2.64 4 4 C2.68 4 1.36 4 0 4 C0 2.68 0 1.36 0 0 Z " fill="#F7F5EE" transform="translate(436,396)" />
<path xmlns="http://www.w3.org/2000/svg" d="M0 0 C1.32 0 2.64 0 4 0 C4 1.32 4 2.64 4 4 C2.68 4 1.36 4 0 4 C0 2.68 0 1.36 0 0 Z " fill="#F7F5EE" transform="translate(196,400)" />
<path xmlns="http://www.w3.org/2000/svg" d="M0 0 C1.32 0 2.64 0 4 0 C4 1.32 4 2.64 4 4 C2.68 4 1.36 4 0 4 C0 2.68 0 1.36 0 0 Z " fill="#F7F5EE" transform="translate(412,400)" />
<path xmlns="http://www.w3.org/2000/svg" d="M0 0 C1.32 0 2.64 0 4 0 C4 1.32 4 2.64 4 4 C2.68 4 1.36 4 0 4 C0 2.68 0 1.36 0 0 Z " fill="#F7F5EE" transform="translate(388,404)" />
<path xmlns="http://www.w3.org/2000/svg" d="M0 0 C1.32 0 2.64 0 4 0 C4 1.32 4 2.64 4 4 C2.68 4 1.36 4 0 4 C0 2.68 0 1.36 0 0 Z " fill="#F7F5EE" transform="translate(184,424)" />
<path xmlns="http://www.w3.org/2000/svg" d="M0 0 C1.32 0 2.64 0 4 0 C4 1.32 4 2.64 4 4 C2.68 4 1.36 4 0 4 C0 2.68 0 1.36 0 0 Z " fill="#F7F5EE" transform="translate(156,428)" />
<path xmlns="http://www.w3.org/2000/svg" d="M0 0 C1.32 0 2.64 0 4 0 C4 1.32 4 2.64 4 4 C2.68 4 1.36 4 0 4 C0 2.68 0 1.36 0 0 Z " fill="#F7F5EE" transform="translate(188,456)" />
<path xmlns="http://www.w3.org/2000/svg" d="M0 0 C1.32 0 2.64 0 4 0 C4 1.32 4 2.64 4 4 C2.68 4 1.36 4 0 4 C0 2.68 0 1.36 0 0 Z " fill="#F7F5EE" transform="translate(160,460)" />
<path xmlns="http://www.w3.org/2000/svg" d="M0 0 C1.32 0 2.64 0 4 0 C4 1.32 4 2.64 4 4 C2.68 4 1.36 4 0 4 C0 2.68 0 1.36 0 0 Z " fill="#F7F5EE" transform="translate(20,464)" />
<path xmlns="http://www.w3.org/2000/svg" d="M0 0 C1.32 0 2.64 0 4 0 C4 1.32 4 2.64 4 4 C2.68 4 1.36 4 0 4 C0 2.68 0 1.36 0 0 Z " fill="#F7F5EE" transform="translate(116,468)" />
<path xmlns="http://www.w3.org/2000/svg" d="M0 0 C5 1 5 1 8 4 C8 5.32 8 6.64 8 8 C3 7 3 7 0 4 C0 2.68 0 1.36 0 0 Z " fill="#F7F5EE" transform="translate(48,488)" />
<path xmlns="http://www.w3.org/2000/svg" d="M0 0 C1.32 0 2.64 0 4 0 C4 1.32 4 2.64 4 4 C2.68 4 1.36 4 0 4 C0 2.68 0 1.36 0 0 Z " fill="#F7F5EE" transform="translate(192,488)" />
<path xmlns="http://www.w3.org/2000/svg" d="M0 0 C1.32 0 2.64 0 4 0 C4 1.32 4 2.64 4 4 C2.68 4 1.36 4 0 4 C0 2.68 0 1.36 0 0 Z " fill="#F7F5EE" transform="translate(164,492)" />
<path xmlns="http://www.w3.org/2000/svg" d="M0 0 C1.32 0 2.64 0 4 0 C4 1.32 4 2.64 4 4 C2.68 4 1.36 4 0 4 C0 2.68 0 1.36 0 0 Z " fill="#F7F5EE" transform="translate(616,496)" />
<path xmlns="http://www.w3.org/2000/svg" d="M0 0 C1.32 0 2.64 0 4 0 C4 1.32 4 2.64 4 4 C2.68 4 1.36 4 0 4 C0 2.68 0 1.36 0 0 Z " fill="#F7F5EE" transform="translate(536,512)" />
<path xmlns="http://www.w3.org/2000/svg" d="M0 0 C1.32 0 2.64 0 4 0 C4 1.32 4 2.64 4 4 C2.68 4 1.36 4 0 4 C0 2.68 0 1.36 0 0 Z " fill="#F7F5EE" transform="translate(84,520)" />
<path xmlns="http://www.w3.org/2000/svg" d="M0 0 C1.32 0 2.64 0 4 0 C4 1.32 4 2.64 4 4 C2.68 4 1.36 4 0 4 C0 2.68 0 1.36 0 0 Z " fill="#F7F5EE" transform="translate(492,520)" />
<path xmlns="http://www.w3.org/2000/svg" d="M0 0 C1.32 0 2.64 0 4 0 C4 1.32 4 2.64 4 4 C2.68 4 1.36 4 0 4 C0 2.68 0 1.36 0 0 Z " fill="#F7F5EE" transform="translate(380,540)" />
<path xmlns="http://www.w3.org/2000/svg" d="M0 0 C1.32 0 2.64 0 4 0 C4 1.32 4 2.64 4 4 C2.68 4 1.36 4 0 4 C0 2.68 0 1.36 0 0 Z " fill="#F7F5EE" transform="translate(184,544)" />
<path xmlns="http://www.w3.org/2000/svg" d="M0 0 C1.32 0 2.64 0 4 0 C4 1.32 4 2.64 4 4 C2.68 4 1.36 4 0 4 C0 2.68 0 1.36 0 0 Z " fill="#F7F5EE" transform="translate(116,548)" />
<path xmlns="http://www.w3.org/2000/svg" d="M0 0 C1.32 0 2.64 0 4 0 C4 1.32 4 2.64 4 4 C2.68 4 1.36 4 0 4 C0 2.68 0 1.36 0 0 Z " fill="#F7F5EE" transform="translate(156,548)" />
<path xmlns="http://www.w3.org/2000/svg" d="M0 0 C1.32 0 2.64 0 4 0 C4 1.32 4 2.64 4 4 C2.68 4 1.36 4 0 4 C0 2.68 0 1.36 0 0 Z " fill="#F7F5EE" transform="translate(128,552)" />
<path xmlns="http://www.w3.org/2000/svg" d="M0 0 C1.32 0 2.64 0 4 0 C4 1.32 4 2.64 4 4 C2.68 4 1.36 4 0 4 C0 2.68 0 1.36 0 0 Z " fill="#F7F5EE" transform="translate(200,552)" />
<path xmlns="http://www.w3.org/2000/svg" d="M0 0 C1.32 0 2.64 0 4 0 C4 1.32 4 2.64 4 4 C2.68 4 1.36 4 0 4 C0 2.68 0 1.36 0 0 Z " fill="#F7F5EE" transform="translate(268,560)" />
<path xmlns="http://www.w3.org/2000/svg" d="M0 0 C1.32 0 2.64 0 4 0 C4 1.32 4 2.64 4 4 C2.68 4 1.36 4 0 4 C0 2.68 0 1.36 0 0 Z " fill="#F7F5EE" transform="translate(224,568)" />
</g><g transform="scale(.25)"><path xmlns="http://www.w3.org/2000/svg" d="M0 0 C1.32 0 2.64 0 4 0 C4 1.32 4 2.64 4 4 C2.68 4 1.36 4 0 4 C0 2.68 0 1.36 0 0 Z " fill="#CBD5F3" transform="translate(456,20)" />
<path xmlns="http://www.w3.org/2000/svg" d="M0 0 C1.32 0 2.64 0 4 0 C4 1.32 4 2.64 4 4 C2.68 4 1.36 4 0 4 C0 2.68 0 1.36 0 0 Z " fill="#CBD5F3" transform="translate(472,24)" />
<path xmlns="http://www.w3.org/2000/svg" d="M0 0 C1.32 0 2.64 0 4 0 C4 1.32 4 2.64 4 4 C2.68 4 1.36 4 0 4 C0 2.68 0 1.36 0 0 Z " fill="#CBD5F3" transform="translate(420,28)" />
<path xmlns="http://www.w3.org/2000/svg" d="M0 0 C1.32 0 2.64 0 4 0 C4 1.32 4 2.64 4 4 C2.68 4 1.36 4 0 4 C0 2.68 0 1.36 0 0 Z " fill="#CBD5F3" transform="translate(400,32)" />
<path xmlns="http://www.w3.org/2000/svg" d="M0 0 C6.77 1.02 8.64 3.48 13.07 8.42 C15.88 11.33 18.67 12.27 22.38 13.81 C23.92 15.27 25.41 16.77 26.88 18.31 C30.5 22.12 33.45 23.9 38.38 25.81 C40.72 27.8 43.06 29.79 45.38 31.81 C47.02 32.47 48.68 33.13 50.38 33.81 C52.59 35.87 52.59 35.87 54.75 38.25 C57.52 41.14 59.15 42.72 62.88 44.31 C67.4 46.25 69.84 49.22 73.19 52.75 C75.38 54.81 75.38 54.81 78.88 56.31 C82.58 57.9 84.13 59.42 86.88 62.31 C90.5 66.12 93.45 67.9 98.38 69.81 C100.72 71.8 103.06 73.79 105.38 75.81 C106.2 76.14 106.2 76.14 110.38 77.81 C114.91 80.82 116.82 82.18 119.38 86.81 C120.55 94.65 120.31 102.36 120.06 110.25 C120.03 112.41 120.01 114.57 119.99 116.72 C119.75 132.44 119.75 132.44 117.38 134.81 C111.38 134.81 111.38 134.81 108.85 132.73 C108.05 131.83 107.26 130.93 106.44 130 C103.69 126.91 101.92 125.03 98.06 123.48 C94.07 121.68 91.87 119.77 88.83 116.65 C87.79 115.6 86.75 114.55 85.68 113.47 C85.13 112.9 85.13 112.9 82.34 110.03 C81.77 109.45 81.77 109.45 78.86 106.5 C73.95 101.52 69.06 96.52 64.16 91.52 C60.59 87.87 57 84.23 53.41 80.59 C52.86 80.03 52.86 80.03 50.07 77.16 C49.03 76.1 47.99 75.05 46.92 73.97 C46.02 73.04 45.11 72.12 44.18 71.17 C41.08 68.56 38.1 67.36 34.38 65.81 C30.65 62.31 27.17 58.7 23.69 54.97 C19.45 50.55 15.99 48.1 10.38 45.81 C6.92 42.71 6.92 42.71 3.56 39.19 C-3.45 31.87 -3.45 31.87 -8.62 31.61 C-9.42 31.6 -9.42 31.6 -13.5 31.56 C-15.11 31.54 -16.71 31.51 -18.37 31.48 C-22.62 31.81 -22.62 31.81 -26.62 34.81 C-30.72 35.26 -34.76 35.32 -38.88 35.41 C-42.62 35.81 -42.62 35.81 -46.62 38.81 C-49.68 39.24 -52.66 39.31 -55.75 39.41 C-58.62 39.81 -58.62 39.81 -62.62 42.81 C-66.72 43.26 -70.76 43.32 -74.88 43.41 C-78.62 43.81 -78.62 43.81 -82.62 46.81 C-86.72 47.26 -90.76 47.32 -94.88 47.41 C-98.62 47.81 -98.62 47.81 -102.62 50.81 C-105.68 51.24 -108.66 51.31 -111.75 51.41 C-114.62 51.81 -114.62 51.81 -118.62 54.81 C-122.72 55.26 -126.76 55.32 -130.88 55.41 C-134.62 55.81 -134.62 55.81 -138.62 58.81 C-142.72 59.26 -146.76 59.32 -150.88 59.41 C-154.62 59.81 -154.62 59.81 -158.62 62.81 C-161.68 63.24 -164.66 63.31 -167.75 63.41 C-170.62 63.81 -170.62 63.81 -174.62 66.81 C-178.72 67.26 -182.76 67.32 -186.88 67.41 C-190.62 67.81 -190.62 67.81 -194.62 70.81 C-198.72 71.26 -202.76 71.32 -206.88 71.41 C-210.62 71.81 -210.62 71.81 -214.62 74.81 C-218.72 75.26 -222.76 75.32 -226.88 75.41 C-230.62 75.81 -230.62 75.81 -234.62 78.81 C-237.68 79.24 -240.66 79.31 -243.75 79.41 C-246.62 79.81 -246.62 79.81 -250.62 82.81 C-254.72 83.26 -258.76 83.32 -262.88 83.41 C-266.62 83.81 -266.62 83.81 -270.62 86.81 C-274.72 87.26 -278.76 87.32 -282.88 87.41 C-286.62 87.81 -286.62 87.81 -290.62 90.81 C-293.68 91.24 -296.66 91.31 -299.75 91.41 C-302.62 91.81 -302.62 91.81 -306.62 94.81 C-310.72 95.26 -314.76 95.32 -318.88 95.41 C-322.62 95.81 -322.62 95.81 -326.62 98.81 C-330.72 99.26 -334.76 99.32 -338.88 99.41 C-342.62 99.81 -342.62 99.81 -346.62 102.81 C-349.68 103.24 -352.66 103.31 -355.75 103.41 C-358.62 103.81 -358.62 103.81 -362.62 106.81 C-366.72 107.26 -370.76 107.32 -374.88 107.41 C-378.62 107.81 -378.62 107.81 -382.62 110.81 C-384.3 111.12 -385.97 111.43 -387.69 111.75 C-392.62 112.81 -392.62 112.81 -395.62 116.81 C-396.31 125.9 -396.31 125.9 -392.62 130.81 C-392.24 133.77 -392.24 133.77 -392.22 137.19 C-392.2 138.42 -392.17 139.65 -392.15 140.92 C-392.13 143.52 -392.12 146.11 -392.1 148.7 C-392.08 149.94 -392.05 151.17 -392.03 152.44 C-392.02 153.56 -392.02 154.69 -392.01 155.85 C-391.62 158.81 -391.62 158.81 -388.62 162.81 C-388.24 165.77 -388.24 165.77 -388.22 169.19 C-388.2 170.42 -388.17 171.65 -388.15 172.92 C-388.13 175.52 -388.12 178.11 -388.1 180.7 C-388.08 181.94 -388.05 183.17 -388.03 184.44 C-388.02 185.56 -388.02 186.69 -388.01 187.85 C-387.62 190.81 -387.62 190.81 -384.62 194.81 C-384.24 198.14 -384.24 198.14 -384.22 202.06 C-384.2 203.48 -384.17 204.89 -384.15 206.34 C-384.13 209.32 -384.12 212.3 -384.1 215.28 C-384.08 216.69 -384.05 218.11 -384.03 219.56 C-384.02 220.86 -384.02 222.15 -384.01 223.48 C-383.62 226.81 -383.62 226.81 -380.62 230.81 C-380.24 233.77 -380.24 233.77 -380.22 237.19 C-380.2 238.42 -380.17 239.65 -380.15 240.92 C-380.13 243.52 -380.12 246.11 -380.1 248.7 C-380.08 249.94 -380.05 251.17 -380.03 252.44 C-380.02 253.56 -380.02 254.69 -380.01 255.85 C-379.62 258.81 -379.62 258.81 -376.62 262.81 C-376.24 265.77 -376.24 265.77 -376.22 269.19 C-376.2 270.42 -376.17 271.65 -376.15 272.92 C-376.13 275.52 -376.12 278.11 -376.1 280.7 C-376.08 281.94 -376.05 283.17 -376.03 284.44 C-376.02 285.56 -376.02 286.69 -376.01 287.85 C-375.62 290.81 -375.62 290.81 -372.62 294.81 C-372.24 297.77 -372.24 297.77 -372.22 301.19 C-372.2 302.42 -372.17 303.65 -372.15 304.92 C-372.13 307.52 -372.12 310.11 -372.1 312.7 C-372.08 313.94 -372.05 315.17 -372.03 316.44 C-372.02 317.56 -372.02 318.69 -372.01 319.85 C-371.62 322.81 -371.62 322.81 -368.62 326.81 C-368.24 330.14 -368.24 330.14 -368.22 334.06 C-368.2 335.48 -368.17 336.89 -368.15 338.34 C-368.13 341.32 -368.12 344.3 -368.1 347.28 C-368.08 348.69 -368.05 350.11 -368.03 351.56 C-368.02 352.86 -368.02 354.15 -368.01 355.48 C-367.62 358.81 -367.62 358.81 -364.62 362.81 C-364.24 365.77 -364.24 365.77 -364.22 369.19 C-364.2 370.42 -364.17 371.65 -364.15 372.92 C-364.13 375.52 -364.12 378.11 -364.1 380.7 C-364.08 381.94 -364.05 383.17 -364.03 384.44 C-364.02 385.56 -364.02 386.69 -364.01 387.85 C-363.62 390.81 -363.62 390.81 -360.62 394.81 C-360.24 397.77 -360.24 397.77 -360.22 401.19 C-360.2 402.42 -360.17 403.65 -360.15 404.92 C-360.13 407.52 -360.12 410.11 -360.1 412.7 C-360.08 413.94 -360.05 415.17 -360.03 416.44 C-360.02 417.56 -360.02 418.69 -360.01 419.85 C-359.62 422.81 -359.62 422.81 -356.62 426.81 C-356.24 430.14 -356.24 430.14 -356.22 434.06 C-356.2 435.48 -356.17 436.89 -356.15 438.34 C-356.13 441.32 -356.12 444.3 -356.1 447.28 C-356.08 448.69 -356.05 450.11 -356.03 451.56 C-356.02 452.86 -356.02 454.15 -356.01 455.48 C-355.62 458.81 -355.62 458.81 -352.62 462.81 C-352.32 463.86 -352.01 464.92 -351.69 466 C-351.34 466.93 -350.99 467.86 -350.62 468.81 C-346.62 469.81 -346.62 469.81 -344.62 468.81 C-340.57 468.57 -336.51 468.43 -332.45 468.29 C-328.62 467.81 -328.62 467.81 -324.62 464.81 C-321.24 464.45 -321.24 464.45 -317.5 464.5 C-316.26 464.5 -315.02 464.51 -313.74 464.51 C-310.62 464.81 -310.62 464.81 -308.62 466.81 C-308.27 470.87 -308.18 474.92 -308.07 478.99 C-307.62 482.81 -307.62 482.81 -304.62 486.81 C-304.32 487.86 -304.01 488.92 -303.69 490 C-303.34 490.93 -302.99 491.86 -302.62 492.81 C-298.62 493.81 -298.62 493.81 -296.62 492.81 C-292.57 492.57 -288.51 492.43 -284.45 492.29 C-280.62 491.81 -280.62 491.81 -276.62 488.81 C-273.17 488.52 -273.17 488.52 -269.38 488.62 C-268.11 488.65 -266.85 488.68 -265.55 488.71 C-265.06 488.72 -265.06 488.72 -262.62 488.81 C-262.29 490.46 -261.97 492.11 -261.62 493.81 C-262.92 494.45 -264.22 495.09 -265.56 495.75 C-269.62 497.81 -269.62 497.81 -270.62 498.81 C-275.68 499.02 -280.73 499.16 -285.79 499.24 C-294.19 499.49 -294.19 499.49 -298.62 502.81 C-303.75 503.19 -308.8 503.3 -313.94 503.34 C-322.22 503.51 -322.22 503.51 -326.62 506.81 C-334.11 506.81 -335.29 504.72 -340.62 499.81 C-342.27 499.15 -343.93 498.49 -345.62 497.81 C-348.38 495.34 -348.38 495.34 -351.34 492.25 C-352.42 491.15 -353.5 490.04 -354.61 488.9 C-356.86 486.55 -359.12 484.21 -361.37 481.87 C-362.45 480.76 -363.53 479.65 -364.65 478.5 C-365.14 477.99 -365.14 477.99 -367.61 475.42 C-370.83 472.64 -373.74 471.48 -377.62 469.81 C-380.6 467.22 -380.6 467.22 -383.53 464.16 C-384.07 463.6 -384.07 463.6 -386.79 460.81 C-389.01 458.48 -391.24 456.15 -393.46 453.82 C-394 453.26 -394 453.26 -396.72 450.47 C-397.68 449.46 -398.65 448.44 -399.65 447.4 C-402.62 444.81 -402.62 444.81 -405.76 443.57 C-414.49 439.6 -421.94 433.21 -426.62 424.81 C-429.7 414.48 -428.84 403.34 -428.65 392.68 C-428.66 389.44 -428.67 386.2 -428.69 382.95 C-428.72 374.18 -428.64 365.42 -428.55 356.65 C-428.46 347.47 -428.47 338.28 -428.47 329.1 C-428.45 313.69 -428.36 298.28 -428.24 282.87 C-428.07 263.08 -428.02 243.29 -428 223.5 C-427.98 206.49 -427.91 189.47 -427.83 172.45 C-427.81 166.98 -427.79 161.51 -427.78 156.04 C-427.75 147.46 -427.7 138.88 -427.61 130.29 C-427.59 127.14 -427.57 123.99 -427.57 120.83 C-427.56 116.54 -427.52 112.24 -427.46 107.95 C-427.47 106.69 -427.47 105.44 -427.48 104.14 C-427.37 98.66 -427.12 95.47 -423.76 91.04 C-420.32 88.6 -418.66 88.11 -414.5 88.12 C-408.62 87.81 -408.62 87.81 -404.62 84.81 C-400.53 84.37 -396.49 84.31 -392.38 84.22 C-388.62 83.81 -388.62 83.81 -384.62 80.81 C-380.53 80.37 -376.49 80.31 -372.38 80.22 C-368.62 79.81 -368.62 79.81 -364.62 76.81 C-360.53 76.37 -356.49 76.31 -352.38 76.22 C-348.62 75.81 -348.62 75.81 -344.62 72.81 C-341.57 72.38 -338.59 72.31 -335.5 72.22 C-332.62 71.81 -332.62 71.81 -328.62 68.81 C-324.53 68.37 -320.49 68.31 -316.38 68.22 C-312.62 67.81 -312.62 67.81 -308.62 64.81 C-304.53 64.37 -300.49 64.31 -296.38 64.22 C-292.62 63.81 -292.62 63.81 -288.62 60.81 C-284.53 60.37 -280.49 60.31 -276.38 60.22 C-272.62 59.81 -272.62 59.81 -268.62 56.81 C-265.57 56.38 -262.59 56.31 -259.5 56.22 C-256.62 55.81 -256.62 55.81 -252.62 52.81 C-248.53 52.37 -244.49 52.31 -240.38 52.22 C-236.62 51.81 -236.62 51.81 -232.62 48.81 C-228.53 48.37 -224.49 48.31 -220.38 48.22 C-216.62 47.81 -216.62 47.81 -212.62 44.81 C-209.57 44.38 -206.59 44.31 -203.5 44.22 C-200.62 43.81 -200.62 43.81 -196.62 40.81 C-192.53 40.37 -188.49 40.31 -184.38 40.22 C-180.62 39.81 -180.62 39.81 -176.62 36.81 C-172.53 36.37 -168.49 36.31 -164.38 36.22 C-160.62 35.81 -160.62 35.81 -156.62 32.81 C-152.53 32.37 -148.49 32.31 -144.38 32.22 C-140.62 31.81 -140.62 31.81 -136.62 28.81 C-133.57 28.38 -130.59 28.31 -127.5 28.22 C-124.62 27.81 -124.62 27.81 -120.62 24.81 C-116.53 24.37 -112.49 24.31 -108.38 24.22 C-104.62 23.81 -104.62 23.81 -100.62 20.81 C-96.53 20.37 -92.49 20.31 -88.38 20.22 C-84.62 19.81 -84.62 19.81 -80.62 16.81 C-77.57 16.38 -74.59 16.31 -71.5 16.22 C-68.62 15.81 -68.62 15.81 -64.62 12.81 C-60.53 12.37 -56.49 12.31 -52.38 12.22 C-48.62 11.81 -48.62 11.81 -44.62 8.81 C-40.53 8.37 -36.49 8.31 -32.38 8.22 C-28.62 7.81 -28.62 7.81 -24.62 4.81 C-20.53 4.37 -16.49 4.31 -12.38 4.22 C-7.41 3.68 -5.03 0.88 0 0 Z " fill="#CBD5F3" transform="translate(461.625,34.1875)" />
<path xmlns="http://www.w3.org/2000/svg" d="M0 0 C1.32 0 2.64 0 4 0 C4 1.32 4 2.64 4 4 C2.68 4 1.36 4 0 4 C0 2.68 0 1.36 0 0 Z " fill="#CBD5F3" transform="translate(364,40)" />
<path xmlns="http://www.w3.org/2000/svg" d="M0 0 C1.32 0 2.64 0 4 0 C4 1.32 4 2.64 4 4 C2.68 4 1.36 4 0 4 C0 2.68 0 1.36 0 0 Z " fill="#CBD5F3" transform="translate(344,44)" />
<path xmlns="http://www.w3.org/2000/svg" d="M0 0 C1.32 0 2.64 0 4 0 C4 1.32 4 2.64 4 4 C2.68 4 1.36 4 0 4 C0 2.68 0 1.36 0 0 Z " fill="#CBD5F3" transform="translate(500,44)" />
<path xmlns="http://www.w3.org/2000/svg" d="M0 0 C1.32 0 2.64 0 4 0 C4 1.32 4 2.64 4 4 C2.68 4 1.36 4 0 4 C0 2.68 0 1.36 0 0 Z " fill="#CBD5F3" transform="translate(288,56)" />
<path xmlns="http://www.w3.org/2000/svg" d="M0 0 C1.32 0 2.64 0 4 0 C4 1.32 4 2.64 4 4 C2.68 4 1.36 4 0 4 C0 2.68 0 1.36 0 0 Z " fill="#CBD5F3" transform="translate(516,56)" />
<path xmlns="http://www.w3.org/2000/svg" d="M0 0 C1.32 0 2.64 0 4 0 C4 1.32 4 2.64 4 4 C2.68 4 1.36 4 0 4 C0 2.68 0 1.36 0 0 Z " fill="#CBD5F3" transform="translate(268,60)" />
<path xmlns="http://www.w3.org/2000/svg" d="M0 0 C1.32 0 2.64 0 4 0 C4 1.32 4 2.64 4 4 C2.68 4 1.36 4 0 4 C0 2.68 0 1.36 0 0 Z " fill="#CBD5F3" transform="translate(232,68)" />
<path xmlns="http://www.w3.org/2000/svg" d="M0 0 C1.32 0 2.64 0 4 0 C4 1.32 4 2.64 4 4 C2.68 4 1.36 4 0 4 C0 2.68 0 1.36 0 0 Z " fill="#CBD5F3" transform="translate(212,72)" />
<path xmlns="http://www.w3.org/2000/svg" d="M0 0 C1.32 0 2.64 0 4 0 C4 1.32 4 2.64 4 4 C2.68 4 1.36 4 0 4 C0 2.68 0 1.36 0 0 Z " fill="#CBD5F3" transform="translate(448,76)" />
<path xmlns="http://www.w3.org/2000/svg" d="M0 0 C1.32 0 2.64 0 4 0 C4 1.32 4 2.64 4 4 C2.68 4 1.36 4 0 4 C0 2.68 0 1.36 0 0 Z " fill="#CBD5F3" transform="translate(156,84)" />
<path xmlns="http://www.w3.org/2000/svg" d="M0 0 C1.32 0 2.64 0 4 0 C4 1.32 4 2.64 4 4 C2.68 4 1.36 4 0 4 C0 2.68 0 1.36 0 0 Z " fill="#CBD5F3" transform="translate(412,84)" />
<path xmlns="http://www.w3.org/2000/svg" d="M0 0 C1.32 0 2.64 0 4 0 C4 1.32 4 2.64 4 4 C2.68 4 1.36 4 0 4 C0 2.68 0 1.36 0 0 Z " fill="#CBD5F3" transform="translate(136,88)" />
<path xmlns="http://www.w3.org/2000/svg" d="M0 0 C1.32 0 2.64 0 4 0 C4 1.32 4 2.64 4 4 C2.68 4 1.36 4 0 4 C0 2.68 0 1.36 0 0 Z " fill="#CBD5F3" transform="translate(392,88)" />
<path xmlns="http://www.w3.org/2000/svg" d="M0 0 C1.32 0 2.64 0 4 0 C4 1.32 4 2.64 4 4 C2.68 4 1.36 4 0 4 C0 2.68 0 1.36 0 0 Z " fill="#CBD5F3" transform="translate(464,88)" />
<path xmlns="http://www.w3.org/2000/svg" d="M0 0 C1.32 0 2.64 0 4 0 C4 1.32 4 2.64 4 4 C2.68 4 1.36 4 0 4 C0 2.68 0 1.36 0 0 Z " fill="#CBD5F3" transform="translate(560,88)" />
<path xmlns="http://www.w3.org/2000/svg" d="M0 0 C1.32 0 2.64 0 4 0 C4 1.32 4 2.64 4 4 C2.68 4 1.36 4 0 4 C0 2.68 0 1.36 0 0 Z " fill="#CBD5F3" transform="translate(372,92)" />
<path xmlns="http://www.w3.org/2000/svg" d="M0 0 C1.32 0 2.64 0 4 0 C4 1.32 4 2.64 4 4 C2.68 4 1.36 4 0 4 C0 2.68 0 1.36 0 0 Z " fill="#CBD5F3" transform="translate(100,96)" />
<path xmlns="http://www.w3.org/2000/svg" d="M0 0 C1.32 0 2.64 0 4 0 C4 1.32 4 2.64 4 4 C2.68 4 1.36 4 0 4 C0 2.68 0 1.36 0 0 Z " fill="#CBD5F3" transform="translate(80,100)" />
<path xmlns="http://www.w3.org/2000/svg" d="M0 0 C1.32 0 2.64 0 4 0 C4 1.32 4 2.64 4 4 C2.68 4 1.36 4 0 4 C0 2.68 0 1.36 0 0 Z " fill="#CBD5F3" transform="translate(336,100)" />
<path xmlns="http://www.w3.org/2000/svg" d="M0 0 C1.32 0 2.64 0 4 0 C4 1.32 4 2.64 4 4 C2.68 4 1.36 4 0 4 C0 2.68 0 1.36 0 0 Z " fill="#CBD5F3" transform="translate(576,100)" />
<path xmlns="http://www.w3.org/2000/svg" d="M0 0 C1.32 0 2.64 0 4 0 C4 1.32 4 2.64 4 4 C2.68 4 1.36 4 0 4 C0 2.68 0 1.36 0 0 Z " fill="#CBD5F3" transform="translate(316,104)" />
<path xmlns="http://www.w3.org/2000/svg" d="M0 0 C1.32 0 2.64 0 4 0 C4 1.32 4 2.64 4 4 C2.68 4 1.36 4 0 4 C0 2.68 0 1.36 0 0 Z " fill="#CBD5F3" transform="translate(44,108)" />
<path xmlns="http://www.w3.org/2000/svg" d="M0 0 C1.32 0 2.64 0 4 0 C4 1.32 4 2.64 4 4 C2.68 4 1.36 4 0 4 C0 2.68 0 1.36 0 0 Z " fill="#CBD5F3" transform="translate(444,108)" />
<path xmlns="http://www.w3.org/2000/svg" d="M0 0 C1.32 0 2.64 0 4 0 C4 1.32 4 2.64 4 4 C2.68 4 1.36 4 0 4 C0 2.68 0 1.36 0 0 Z " fill="#CBD5F3" transform="translate(24,112)" />
<path xmlns="http://www.w3.org/2000/svg" d="M0 0 C1.32 0 2.64 0 4 0 C4 1.32 4 2.64 4 4 C2.68 4 1.36 4 0 4 C0 2.68 0 1.36 0 0 Z " fill="#CBD5F3" transform="translate(280,112)" />
<path xmlns="http://www.w3.org/2000/svg" d="M0 0 C1.32 0 2.64 0 4 0 C4 1.32 4 2.64 4 4 C2.68 4 1.36 4 0 4 C0 2.68 0 1.36 0 0 Z " fill="#CBD5F3" transform="translate(424,112)" />
<path xmlns="http://www.w3.org/2000/svg" d="M0 0 C1.32 0 2.64 0 4 0 C4 1.32 4 2.64 4 4 C2.68 4 1.36 4 0 4 C0 2.68 0 1.36 0 0 Z " fill="#CBD5F3" transform="translate(492,112)" />
<path xmlns="http://www.w3.org/2000/svg" d="M0 0 C1.32 0 2.64 0 4 0 C4 1.32 4 2.64 4 4 C2.68 4 1.36 4 0 4 C0 2.68 0 1.36 0 0 Z " fill="#CBD5F3" transform="translate(592,112)" />
<path xmlns="http://www.w3.org/2000/svg" d="M0 0 C1.32 0 2.64 0 4 0 C4 1.32 4 2.64 4 4 C2.68 4 1.36 4 0 4 C0 2.68 0 1.36 0 0 Z " fill="#CBD5F3" transform="translate(260,116)" />
<path xmlns="http://www.w3.org/2000/svg" d="M0 0 C1.32 0 2.64 0 4 0 C4 1.32 4 2.64 4 4 C2.68 4 1.36 4 0 4 C0 2.68 0 1.36 0 0 Z " fill="#CBD5F3" transform="translate(240,120)" />
<path xmlns="http://www.w3.org/2000/svg" d="M0 0 C1.32 0 2.64 0 4 0 C4 1.32 4 2.64 4 4 C2.68 4 1.36 4 0 4 C0 2.68 0 1.36 0 0 Z " fill="#CBD5F3" transform="translate(388,120)" />
<path xmlns="http://www.w3.org/2000/svg" d="M0 0 C1.32 0 2.64 0 4 0 C4 1.32 4 2.64 4 4 C2.68 4 1.36 4 0 4 C0 2.68 0 1.36 0 0 Z " fill="#CBD5F3" transform="translate(456,120)" />
<path xmlns="http://www.w3.org/2000/svg" d="M0 0 C1.32 0 2.64 0 4 0 C4 1.32 4 2.64 4 4 C2.68 4 1.36 4 0 4 C0 2.68 0 1.36 0 0 Z " fill="#CBD5F3" transform="translate(368,124)" />
<path xmlns="http://www.w3.org/2000/svg" d="M0 0 C1.32 0 2.64 0 4 0 C4 1.32 4 2.64 4 4 C2.68 4 1.36 4 0 4 C0 2.68 0 1.36 0 0 Z " fill="#CBD5F3" transform="translate(204,128)" />
<path xmlns="http://www.w3.org/2000/svg" d="M0 0 C1.32 0 2.64 0 4 0 C4 1.32 4 2.64 4 4 C2.68 4 1.36 4 0 4 C0 2.68 0 1.36 0 0 Z " fill="#CBD5F3" transform="translate(184,132)" />
<path xmlns="http://www.w3.org/2000/svg" d="M0 0 C1.32 0 2.64 0 4 0 C4 1.32 4 2.64 4 4 C2.68 4 1.36 4 0 4 C0 2.68 0 1.36 0 0 Z " fill="#CBD5F3" transform="translate(332,132)" />
<path xmlns="http://www.w3.org/2000/svg" d="M0 0 C1.32 0 2.64 0 4 0 C4 1.32 4 2.64 4 4 C2.68 4 1.36 4 0 4 C0 2.68 0 1.36 0 0 Z " fill="#CBD5F3" transform="translate(400,132)" />
<path xmlns="http://www.w3.org/2000/svg" d="M0 0 C1.32 0 2.64 0 4 0 C4 1.32 4 2.64 4 4 C2.68 4 1.36 4 0 4 C0 2.68 0 1.36 0 0 Z " fill="#CBD5F3" transform="translate(312,136)" />
<path xmlns="http://www.w3.org/2000/svg" d="M0 0 C1.32 0 2.64 0 4 0 C4 1.32 4 2.64 4 4 C2.68 4 1.36 4 0 4 C0 2.68 0 1.36 0 0 Z " fill="#CBD5F3" transform="translate(512,136)" />
<path xmlns="http://www.w3.org/2000/svg" d="M0 0 C1.32 0 2.64 0 4 0 C4 1.32 4 2.64 4 4 C2.68 4 1.36 4 0 4 C0 2.68 0 1.36 0 0 Z " fill="#CBD5F3" transform="translate(148,140)" />
<path xmlns="http://www.w3.org/2000/svg" d="M0 0 C1.32 0 2.64 0 4 0 C4 1.32 4 2.64 4 4 C2.68 4 1.36 4 0 4 C0 2.68 0 1.36 0 0 Z " fill="#CBD5F3" transform="translate(128,144)" />
<path xmlns="http://www.w3.org/2000/svg" d="M0 0 C1.32 0 2.64 0 4 0 C4 1.32 4 2.64 4 4 C2.68 4 1.36 4 0 4 C0 2.68 0 1.36 0 0 Z " fill="#CBD5F3" transform="translate(276,144)" />
<path xmlns="http://www.w3.org/2000/svg" d="M0 0 C1.32 0 2.64 0 4 0 C4 1.32 4 2.64 4 4 C2.68 4 1.36 4 0 4 C0 2.68 0 1.36 0 0 Z " fill="#CBD5F3" transform="translate(344,144)" />
<path xmlns="http://www.w3.org/2000/svg" d="M0 0 C1.32 0 2.64 0 4 0 C4 1.32 4 2.64 4 4 C2.68 4 1.36 4 0 4 C0 2.68 0 1.36 0 0 Z " fill="#CBD5F3" transform="translate(476,144)" />
<path xmlns="http://www.w3.org/2000/svg" d="M0 0 C1.32 0 2.64 0 4 0 C4 1.32 4 2.64 4 4 C2.68 4 1.36 4 0 4 C0 2.68 0 1.36 0 0 Z " fill="#CBD5F3" transform="translate(108,148)" />
<path xmlns="http://www.w3.org/2000/svg" d="M0 0 C1.32 0 2.64 0 4 0 C4 1.32 4 2.64 4 4 C2.68 4 1.36 4 0 4 C0 2.68 0 1.36 0 0 Z " fill="#CBD5F3" transform="translate(256,148)" />
<path xmlns="http://www.w3.org/2000/svg" d="M0 0 C1.32 0 2.64 0 4 0 C4 1.32 4 2.64 4 4 C2.68 4 1.36 4 0 4 C0 2.68 0 1.36 0 0 Z " fill="#CBD5F3" transform="translate(524,148)" />
<path xmlns="http://www.w3.org/2000/svg" d="M0 0 C1.32 0 2.64 0 4 0 C4 1.32 4 2.64 4 4 C2.68 4 1.36 4 0 4 C0 2.68 0 1.36 0 0 Z " fill="#CBD5F3" transform="translate(440,152)" />
<path xmlns="http://www.w3.org/2000/svg" d="M0 0 C1.32 0 2.64 0 4 0 C4 1.32 4 2.64 4 4 C2.68 4 1.36 4 0 4 C0 2.68 0 1.36 0 0 Z " fill="#CBD5F3" transform="translate(220,156)" />
<path xmlns="http://www.w3.org/2000/svg" d="M0 0 C1.32 0 2.64 0 4 0 C4 1.32 4 2.64 4 4 C2.68 4 1.36 4 0 4 C0 2.68 0 1.36 0 0 Z " fill="#CBD5F3" transform="translate(288,156)" />
<path xmlns="http://www.w3.org/2000/svg" d="M0 0 C1.32 0 2.64 0 4 0 C4 1.32 4 2.64 4 4 C2.68 4 1.36 4 0 4 C0 2.68 0 1.36 0 0 Z " fill="#CBD5F3" transform="translate(424,156)" />
<path xmlns="http://www.w3.org/2000/svg" d="M0 0 C1.32 0 2.64 0 4 0 C4 1.32 4 2.64 4 4 C2.68 4 1.36 4 0 4 C0 2.68 0 1.36 0 0 Z " fill="#CBD5F3" transform="translate(488,156)" />
<path xmlns="http://www.w3.org/2000/svg" d="M0 0 C1.32 0 2.64 0 4 0 C4 1.32 4 2.64 4 4 C2.68 4 1.36 4 0 4 C0 2.68 0 1.36 0 0 Z " fill="#CBD5F3" transform="translate(536,156)" />
<path xmlns="http://www.w3.org/2000/svg" d="M0 0 C1.32 0 2.64 0 4 0 C4 1.32 4 2.64 4 4 C2.68 4 1.36 4 0 4 C0 2.68 0 1.36 0 0 Z " fill="#CBD5F3" transform="translate(200,160)" />
<path xmlns="http://www.w3.org/2000/svg" d="M0 0 C1.32 0 2.64 0 4 0 C4 1.32 4 2.64 4 4 C2.68 4 1.36 4 0 4 C0 2.68 0 1.36 0 0 Z " fill="#CBD5F3" transform="translate(268,160)" />
<path xmlns="http://www.w3.org/2000/svg" d="M0 0 C1.32 0 2.64 0 4 0 C4 1.32 4 2.64 4 4 C2.68 4 1.36 4 0 4 C0 2.68 0 1.36 0 0 Z " fill="#CBD5F3" transform="translate(388,164)" />
<path xmlns="http://www.w3.org/2000/svg" d="M0 0 C1.32 0 2.64 0 4 0 C4 1.32 4 2.64 4 4 C2.68 4 1.36 4 0 4 C0 2.68 0 1.36 0 0 Z " fill="#CBD5F3" transform="translate(452,164)" />
<path xmlns="http://www.w3.org/2000/svg" d="M0 0 C1.32 0 2.64 0 4 0 C4 1.32 4 2.64 4 4 C2.68 4 1.36 4 0 4 C0 2.68 0 1.36 0 0 Z " fill="#CBD5F3" transform="translate(164,168)" />
<path xmlns="http://www.w3.org/2000/svg" d="M0 0 C1.32 0 2.64 0 4 0 C4 1.32 4 2.64 4 4 C2.68 4 1.36 4 0 4 C0 2.68 0 1.36 0 0 Z " fill="#CBD5F3" transform="translate(232,168)" />
<path xmlns="http://www.w3.org/2000/svg" d="M0 0 C1.32 0 2.64 0 4 0 C4 1.32 4 2.64 4 4 C2.68 4 1.36 4 0 4 C0 2.68 0 1.36 0 0 Z " fill="#CBD5F3" transform="translate(80,172)" />
<path xmlns="http://www.w3.org/2000/svg" d="M0 0 C1.32 0 2.64 0 4 0 C4 1.32 4 2.64 4 4 C2.68 4 1.36 4 0 4 C0 2.68 0 1.36 0 0 Z " fill="#CBD5F3" transform="translate(144,172)" />
<path xmlns="http://www.w3.org/2000/svg" d="M0 0 C1.32 0 2.64 0 4 0 C4 1.32 4 2.64 4 4 C2.68 4 1.36 4 0 4 C0 2.68 0 1.36 0 0 Z " fill="#CBD5F3" transform="translate(352,172)" />
<path xmlns="http://www.w3.org/2000/svg" d="M0 0 C1.32 0 2.64 0 4 0 C4 1.32 4 2.64 4 4 C2.68 4 1.36 4 0 4 C0 2.68 0 1.36 0 0 Z " fill="#CBD5F3" transform="translate(416,172)" />
<path xmlns="http://www.w3.org/2000/svg" d="M0 0 C1.32 0 2.64 0 4 0 C4.33 0.99 4.66 1.98 5 3 C3.35 3.33 1.7 3.66 0 4 C0 2.68 0 1.36 0 0 Z " fill="#CBD5F3" transform="translate(608,172)" />
<path xmlns="http://www.w3.org/2000/svg" d="M0 0 C1.65 0.33 3.3 0.66 5 1 C5 2.98 5 4.96 5 7 C3.35 7.33 1.7 7.66 0 8 C-0.33 7.67 -0.66 7.34 -1 7 C-1 1 -1 1 0 0 Z " fill="#CBD5F3" transform="translate(564,176)" />
<path xmlns="http://www.w3.org/2000/svg" d="M0 0 C1.32 0 2.64 0 4 0 C4 1.32 4 2.64 4 4 C2.68 4 1.36 4 0 4 C-0.33 3.01 -0.66 2.02 -1 1 C-0.67 0.67 -0.34 0.34 0 0 Z " fill="#CBD5F3" transform="translate(616,176)" />
<path xmlns="http://www.w3.org/2000/svg" d="M0 0 C1.32 0 2.64 0 4 0 C4 1.32 4 2.64 4 4 C2.68 4 1.36 4 0 4 C0 2.68 0 1.36 0 0 Z " fill="#CBD5F3" transform="translate(176,180)" />
<path xmlns="http://www.w3.org/2000/svg" d="M0 0 C1.32 0 2.64 0 4 0 C4 1.32 4 2.64 4 4 C2.68 4 1.36 4 0 4 C0 2.68 0 1.36 0 0 Z " fill="#CBD5F3" transform="translate(316,180)" />
<path xmlns="http://www.w3.org/2000/svg" d="M0 0 C1.32 0 2.64 0 4 0 C4 1.32 4 2.64 4 4 C2.68 4 1.36 4 0 4 C0 2.68 0 1.36 0 0 Z " fill="#CBD5F3" transform="translate(380,180)" />
<path xmlns="http://www.w3.org/2000/svg" d="M0 0 C1.32 0 2.64 0 4 0 C4 1.32 4 2.64 4 4 C2.68 4 1.36 4 0 4 C0 2.68 0 1.36 0 0 Z " fill="#CBD5F3" transform="translate(156,184)" />
<path xmlns="http://www.w3.org/2000/svg" d="M0 0 C1.32 0 2.64 0 4 0 C4 1.32 4 2.64 4 4 C2.68 4 1.36 4 0 4 C0 2.68 0 1.36 0 0 Z " fill="#CBD5F3" transform="translate(280,188)" />
<path xmlns="http://www.w3.org/2000/svg" d="M0 0 C1.32 0 2.64 0 4 0 C4 1.32 4 2.64 4 4 C2.68 4 1.36 4 0 4 C0 2.68 0 1.36 0 0 Z " fill="#CBD5F3" transform="translate(520,188)" />
<path xmlns="http://www.w3.org/2000/svg" d="M0 0 C1.61 0 3.22 0.01 4.88 0.01 C8.88 0.31 8.88 0.31 10.88 2.31 C11.07 6.13 11.14 9.88 11.13 13.7 C11.13 14.9 11.14 16.1 11.14 17.34 C11.15 21.39 11.14 25.44 11.13 29.5 C11.14 32.39 11.14 35.28 11.14 38.18 C11.15 46.06 11.15 53.94 11.14 61.82 C11.14 70.04 11.14 78.27 11.15 86.5 C11.15 100.32 11.15 114.14 11.14 127.96 C11.12 143.97 11.13 159.97 11.14 175.97 C11.15 189.68 11.15 203.4 11.14 217.11 C11.14 225.31 11.14 233.51 11.15 241.71 C11.15 249.42 11.15 257.13 11.14 264.84 C11.14 267.68 11.14 270.52 11.14 273.35 C11.15 277.21 11.14 281.07 11.13 284.92 C11.13 286.06 11.14 287.2 11.14 288.37 C11.1 296.08 11.1 296.08 8.88 298.31 C5.86 298.54 2.84 298.76 -0.18 298.87 C-3.12 299.31 -3.12 299.31 -7.12 302.31 C-12.26 302.76 -17.35 302.82 -22.5 302.91 C-27.12 303.31 -27.12 303.31 -31.12 306.31 C-36.26 306.76 -41.35 306.82 -46.5 306.91 C-51.12 307.31 -51.12 307.31 -55.12 310.31 C-59.22 310.76 -63.26 310.82 -67.38 310.91 C-71.12 311.31 -71.12 311.31 -75.12 314.31 C-80.26 314.76 -85.35 314.82 -90.5 314.91 C-95.12 315.31 -95.12 315.31 -99.12 318.31 C-103.22 318.76 -107.26 318.82 -111.38 318.91 C-115.12 319.31 -115.12 319.31 -119.12 322.31 C-124.26 322.76 -129.35 322.82 -134.5 322.91 C-139.12 323.31 -139.12 323.31 -143.12 326.31 C-148.26 326.76 -153.35 326.82 -158.5 326.91 C-163.12 327.31 -163.12 327.31 -167.12 330.31 C-171.22 330.76 -175.26 330.82 -179.38 330.91 C-183.12 331.31 -183.12 331.31 -187.12 334.31 C-192.26 334.76 -197.35 334.82 -202.5 334.91 C-207.12 335.31 -207.12 335.31 -211.12 338.31 C-215.22 338.76 -219.26 338.82 -223.38 338.91 C-227.12 339.31 -227.12 339.31 -231.12 342.31 C-236.26 342.76 -241.35 342.82 -246.5 342.91 C-251.12 343.31 -251.12 343.31 -255.12 346.31 C-259.22 346.76 -263.26 346.82 -267.38 346.91 C-271.13 347.31 -271.13 347.31 -275.12 350.31 C-280.26 350.76 -285.35 350.82 -290.5 350.91 C-295.12 351.31 -295.12 351.31 -299.12 354.31 C-304.26 354.76 -309.35 354.82 -314.5 354.91 C-319.12 355.31 -319.12 355.31 -323.12 358.31 C-327.22 358.76 -331.26 358.82 -335.38 358.91 C-339.12 359.31 -339.12 359.31 -343.12 362.31 C-348.26 362.76 -353.35 362.82 -358.5 362.91 C-363.12 363.31 -363.12 363.31 -367.12 366.31 C-372.25 366.62 -372.25 366.62 -377.12 366.31 C-380.39 363.05 -379.38 359.4 -379.38 354.9 C-379.38 353.91 -379.39 352.92 -379.39 351.9 C-379.4 348.57 -379.39 345.24 -379.38 341.9 C-379.39 339.52 -379.39 337.14 -379.39 334.76 C-379.4 328.28 -379.4 321.79 -379.39 315.31 C-379.39 308.54 -379.39 301.77 -379.4 295 C-379.4 283.62 -379.4 272.25 -379.39 260.88 C-379.37 247.71 -379.38 234.55 -379.39 221.38 C-379.4 210.1 -379.4 198.81 -379.39 187.53 C-379.39 180.78 -379.39 174.03 -379.4 167.28 C-379.4 160.94 -379.4 154.59 -379.39 148.25 C-379.39 145.92 -379.39 143.58 -379.39 141.25 C-379.4 138.07 -379.39 134.9 -379.38 131.73 C-379.38 129.95 -379.38 128.17 -379.38 126.33 C-379.12 122.31 -379.12 122.31 -377.12 120.31 C-374.11 120.09 -371.09 119.87 -368.07 119.75 C-365.12 119.31 -365.12 119.31 -361.12 116.31 C-357.03 115.87 -352.99 115.81 -348.88 115.72 C-345.12 115.31 -345.12 115.31 -341.12 112.31 C-337.03 111.87 -332.99 111.81 -328.88 111.72 C-325.12 111.31 -325.12 111.31 -321.12 108.31 C-317.03 107.87 -312.99 107.81 -308.88 107.72 C-305.12 107.31 -305.12 107.31 -301.12 104.31 C-297.03 103.87 -292.99 103.81 -288.88 103.72 C-285.12 103.31 -285.12 103.31 -281.12 100.31 C-279.48 99.65 -277.82 98.99 -276.12 98.31 C-275.47 96.66 -274.81 95.01 -274.12 93.31 C-271.47 87.44 -268.33 83.16 -264.12 78.31 C-263.47 76.66 -262.81 75.01 -262.12 73.31 C-260.81 70.64 -259.47 67.97 -258.12 65.31 C-257.51 63.97 -256.89 62.63 -256.25 61.25 C-253.99 57.06 -251.24 53.9 -248.12 50.31 C-247.47 48.66 -246.81 47.01 -246.12 45.31 C-245.12 44.31 -245.12 44.31 -240.19 43.38 C-235.12 42.31 -235.12 42.31 -233.12 40.31 C-228.02 39.96 -222.93 39.87 -217.82 39.75 C-213.12 39.31 -213.12 39.31 -209.12 36.31 C-205.03 35.87 -200.99 35.81 -196.88 35.72 C-193.12 35.31 -193.12 35.31 -189.12 32.31 C-183.99 31.86 -178.9 31.81 -173.75 31.72 C-169.12 31.31 -169.12 31.31 -165.12 28.31 C-161.03 27.87 -156.99 27.81 -152.88 27.72 C-149.12 27.31 -149.12 27.31 -145.12 24.31 C-139.99 23.86 -134.9 23.81 -129.75 23.72 C-125.12 23.31 -125.12 23.31 -121.12 20.31 C-117.03 19.87 -112.99 19.81 -108.88 19.72 C-105.12 19.31 -105.12 19.31 -101.12 16.31 C-95.99 15.86 -90.9 15.81 -85.75 15.72 C-81.12 15.31 -81.12 15.31 -77.12 12.31 C-71.99 11.86 -66.9 11.81 -61.75 11.72 C-57.12 11.31 -57.12 11.31 -53.12 8.31 C-49.03 7.87 -44.99 7.81 -40.88 7.72 C-37.12 7.31 -37.12 7.31 -33.12 4.31 C-27.99 3.86 -22.9 3.81 -17.75 3.72 C-10.95 3.12 -7.37 -0.08 0 0 Z M-123.12 137.31 C-128.26 137.76 -133.35 137.82 -138.5 137.91 C-143.12 138.31 -143.12 138.31 -147.12 141.31 C-152.26 141.76 -157.35 141.82 -162.5 141.91 C-167.12 142.31 -167.12 142.31 -171.12 145.31 C-176.26 145.76 -181.35 145.82 -186.5 145.91 C-191.12 146.31 -191.12 146.31 -195.12 149.31 C-198.73 149.58 -198.73 149.58 -202.88 149.56 C-208.98 149.82 -210.79 150.08 -216 153.69 C-221.75 160.36 -221.48 165.37 -221.53 173.92 C-221.54 175.28 -221.55 176.63 -221.57 178.03 C-221.58 180.9 -221.6 183.77 -221.61 186.64 C-221.62 191.03 -221.69 195.42 -221.75 199.8 C-221.76 202.59 -221.77 205.38 -221.78 208.17 C-221.81 209.48 -221.83 210.79 -221.86 212.14 C-221.83 218.23 -221.7 221.42 -218.33 226.63 C-215.12 229.31 -215.12 229.31 -211.12 230.31 C-210.79 230.15 -210.79 230.15 -209.12 229.31 C-204.02 229.07 -198.92 228.93 -193.82 228.79 C-189.12 228.31 -189.12 228.31 -185.12 225.31 C-179.99 224.86 -174.9 224.81 -169.75 224.72 C-165.12 224.31 -165.12 224.31 -161.12 221.31 C-155.99 220.86 -150.9 220.81 -145.75 220.72 C-141.12 220.31 -141.12 220.31 -137.12 217.31 C-131.99 216.86 -126.9 216.81 -121.75 216.72 C-117.12 216.31 -117.12 216.31 -113.12 213.31 C-110.18 212.87 -110.18 212.87 -107 212.75 C-101.12 212.31 -101.12 212.31 -99.12 210.31 C-98.87 207.28 -98.87 207.28 -98.87 203.32 C-98.86 202.59 -98.86 202.59 -98.85 198.85 C-98.85 197.25 -98.86 195.65 -98.86 194 C-98.86 192.37 -98.86 190.73 -98.85 189.05 C-98.85 185.58 -98.86 182.12 -98.86 178.66 C-98.87 173.34 -98.86 168.02 -98.85 162.7 C-98.85 159.34 -98.86 155.98 -98.86 152.62 C-98.86 151.02 -98.85 149.42 -98.85 147.77 C-98.85 146.3 -98.86 144.82 -98.87 143.3 C-98.87 142 -98.87 140.69 -98.87 139.35 C-99.12 136.31 -99.12 136.31 -101.12 134.31 C-104.08 134.09 -107.04 134.01 -110 134 C-111.61 133.98 -113.21 133.97 -114.87 133.95 C-119.12 134.31 -119.12 134.31 -123.12 137.31 Z " fill="#CBD5F3" transform="translate(594.125,190.6875)" />
<path xmlns="http://www.w3.org/2000/svg" d="M0 0 C1.32 0 2.64 0 4 0 C4 1.32 4 2.64 4 4 C2.68 4 1.36 4 0 4 C0 2.68 0 1.36 0 0 Z " fill="#CBD5F3" transform="translate(264,192)" />
<path xmlns="http://www.w3.org/2000/svg" d="M0 0 C1.32 0 2.64 0 4 0 C4 1.32 4 2.64 4 4 C2.68 4 1.36 4 0 4 C0 2.68 0 1.36 0 0 Z " fill="#CBD5F3" transform="translate(328,192)" />
<path xmlns="http://www.w3.org/2000/svg" d="M0 0 C1.32 0 2.64 0 4 0 C4 1.32 4 2.64 4 4 C2.68 4 1.36 4 0 4 C0 2.68 0 1.36 0 0 Z " fill="#CBD5F3" transform="translate(112,196)" />
<path xmlns="http://www.w3.org/2000/svg" d="M0 0 C1.32 0 2.64 0 4 0 C4 1.32 4 2.64 4 4 C2.68 4 1.36 4 0 4 C0 2.68 0 1.36 0 0 Z " fill="#CBD5F3" transform="translate(476,196)" />
<path xmlns="http://www.w3.org/2000/svg" d="M0 0 C1.32 0 2.64 0 4 0 C4 1.32 4 2.64 4 4 C2.68 4 1.36 4 0 4 C0 2.68 0 1.36 0 0 Z " fill="#CBD5F3" transform="translate(228,200)" />
<path xmlns="http://www.w3.org/2000/svg" d="M0 0 C1.32 0 2.64 0 4 0 C4 1.32 4 2.64 4 4 C2.68 4 1.36 4 0 4 C0 2.68 0 1.36 0 0 Z " fill="#CBD5F3" transform="translate(292,200)" />
<path xmlns="http://www.w3.org/2000/svg" d="M0 0 C1.65 0.33 3.3 0.66 5 1 C5 2.98 5 4.96 5 7 C3.35 7.33 1.7 7.66 0 8 C-0.33 7.67 -0.66 7.34 -1 7 C-1 1 -1 1 0 0 Z " fill="#CBD5F3" transform="translate(84,204)" />
<path xmlns="http://www.w3.org/2000/svg" d="M0 0 C1.32 0 2.64 0 4 0 C4 1.32 4 2.64 4 4 C2.68 4 1.36 4 0 4 C0 2.68 0 1.36 0 0 Z " fill="#CBD5F3" transform="translate(432,204)" />
<path xmlns="http://www.w3.org/2000/svg" d="M0 0 C1.32 0 2.64 0 4 0 C4 1.32 4 2.64 4 4 C2.68 4 1.36 4 0 4 C0 2.68 0 1.36 0 0 Z " fill="#CBD5F3" transform="translate(128,208)" />
<path xmlns="http://www.w3.org/2000/svg" d="M0 0 C1.32 0 2.64 0 4 0 C4 1.32 4 2.64 4 4 C2.68 4 1.36 4 0 4 C0 2.68 0 1.36 0 0 Z " fill="#CBD5F3" transform="translate(192,208)" />
<path xmlns="http://www.w3.org/2000/svg" d="M0 0 C1.32 0 2.64 0 4 0 C4 1.32 4 2.64 4 4 C2.68 4 1.36 4 0 4 C0 2.68 0 1.36 0 0 Z " fill="#CBD5F3" transform="translate(256,208)" />
<path xmlns="http://www.w3.org/2000/svg" d="M0 0 C1.32 0 2.64 0 4 0 C4 1.32 4 2.64 4 4 C2.68 4 1.36 4 0 4 C0 2.68 0 1.36 0 0 Z " fill="#CBD5F3" transform="translate(408,208)" />
<path xmlns="http://www.w3.org/2000/svg" d="M0 0 C1.32 0 2.64 0 4 0 C4 1.32 4 2.64 4 4 C2.68 4 1.36 4 0 4 C0 2.68 0 1.36 0 0 Z " fill="#CBD5F3" transform="translate(240,212)" />
<path xmlns="http://www.w3.org/2000/svg" d="M0 0 C1.32 0 2.64 0 4 0 C4 1.32 4 2.64 4 4 C2.68 4 1.36 4 0 4 C0 2.68 0 1.36 0 0 Z " fill="#CBD5F3" transform="translate(388,212)" />
<path xmlns="http://www.w3.org/2000/svg" d="M0 0 C1.32 0 2.64 0 4 0 C4 1.32 4 2.64 4 4 C2.68 4 1.36 4 0 4 C0 2.68 0 1.36 0 0 Z " fill="#CBD5F3" transform="translate(220,216)" />
<path xmlns="http://www.w3.org/2000/svg" d="M0 0 C1.32 0 2.64 0 4 0 C4 1.32 4 2.64 4 4 C2.68 4 1.36 4 0 4 C0 2.68 0 1.36 0 0 Z " fill="#CBD5F3" transform="translate(364,216)" />
<path xmlns="http://www.w3.org/2000/svg" d="M0 0 C1.32 0 2.64 0 4 0 C4 1.32 4 2.64 4 4 C2.68 4 1.36 4 0 4 C0 2.68 0 1.36 0 0 Z " fill="#CBD5F3" transform="translate(184,224)" />
<path xmlns="http://www.w3.org/2000/svg" d="M0 0 C1.32 0 2.64 0 4 0 C4 1.32 4 2.64 4 4 C2.68 4 1.36 4 0 4 C0 2.68 0 1.36 0 0 Z " fill="#CBD5F3" transform="translate(116,228)" />
<path xmlns="http://www.w3.org/2000/svg" d="M0 0 C1.32 0 2.64 0 4 0 C4 1.32 4 2.64 4 4 C2.68 4 1.36 4 0 4 C0 2.68 0 1.36 0 0 Z " fill="#CBD5F3" transform="translate(160,232)" />
<path xmlns="http://www.w3.org/2000/svg" d="M0 0 C1.32 0 2.64 0 4 0 C4 1.32 4 2.64 4 4 C2.68 4 1.36 4 0 4 C0 2.68 0 1.36 0 0 Z " fill="#CBD5F3" transform="translate(332,232)" />
<path xmlns="http://www.w3.org/2000/svg" d="M0 0 C1.32 0 2.64 0 4 0 C4 1.32 4 2.64 4 4 C2.68 4 1.36 4 0 4 C0 2.68 0 1.36 0 0 Z " fill="#CBD5F3" transform="translate(88,240)" />
<path xmlns="http://www.w3.org/2000/svg" d="M0 0 C1.32 0 2.64 0 4 0 C4 1.32 4 2.64 4 4 C2.68 4 1.36 4 0 4 C0 2.68 0 1.36 0 0 Z " fill="#CBD5F3" transform="translate(132,240)" />
<path xmlns="http://www.w3.org/2000/svg" d="M0 0 C1.32 0 2.64 0 4 0 C4 1.32 4 2.64 4 4 C2.68 4 1.36 4 0 4 C0 2.68 0 1.36 0 0 Z " fill="#CBD5F3" transform="translate(176,244)" />
<path xmlns="http://www.w3.org/2000/svg" d="M0 0 C1.32 0 2.64 0 4 0 C4 1.32 4 2.64 4 4 C2.68 4 1.36 4 0 4 C0 2.68 0 1.36 0 0 Z " fill="#CBD5F3" transform="translate(120,260)" />
<path xmlns="http://www.w3.org/2000/svg" d="M0 0 C1.65 0.33 3.3 0.66 5 1 C5 2.98 5 4.96 5 7 C3.35 7.33 1.7 7.66 0 8 C-0.33 7.67 -0.66 7.34 -1 7 C-1 1 -1 1 0 0 Z " fill="#CBD5F3" transform="translate(164,260)" />
<path xmlns="http://www.w3.org/2000/svg" d="M0 0 C1.32 0 2.64 0 4 0 C4 1.32 4 2.64 4 4 C2.68 4 1.36 4 0 4 C0 2.68 0 1.36 0 0 Z " fill="#CBD5F3" transform="translate(316,260)" />
<path xmlns="http://www.w3.org/2000/svg" d="M0 0 C1.32 0 2.64 0 4 0 C4 1.32 4 2.64 4 4 C2.68 4 1.36 4 0 4 C0 2.68 0 1.36 0 0 Z " fill="#CBD5F3" transform="translate(92,272)" />
<path xmlns="http://www.w3.org/2000/svg" d="M0 0 C1.32 0 2.64 0 4 0 C4 1.32 4 2.64 4 4 C2.68 4 1.36 4 0 4 C0 2.68 0 1.36 0 0 Z " fill="#CBD5F3" transform="translate(136,272)" />
<path xmlns="http://www.w3.org/2000/svg" d="M0 0 C1.32 0 2.64 0 4 0 C4 1.32 4 2.64 4 4 C2.68 4 1.36 4 0 4 C0 2.68 0 1.36 0 0 Z " fill="#CBD5F3" transform="translate(180,276)" />
<path xmlns="http://www.w3.org/2000/svg" d="M0 0 C1.32 0 2.64 0 4 0 C4 1.32 4 2.64 4 4 C2.68 4 1.36 4 0 4 C0 2.68 0 1.36 0 0 Z " fill="#CBD5F3" transform="translate(276,284)" />
<path xmlns="http://www.w3.org/2000/svg" d="M0 0 C1.32 0 2.64 0 4 0 C4 1.32 4 2.64 4 4 C2.68 4 1.36 4 0 4 C0 2.68 0 1.36 0 0 Z " fill="#CBD5F3" transform="translate(256,288)" />
<path xmlns="http://www.w3.org/2000/svg" d="M0 0 C1.32 0 2.64 0 4 0 C4 1.32 4 2.64 4 4 C2.68 4 1.36 4 0 4 C0 2.68 0 1.36 0 0 Z " fill="#CBD5F3" transform="translate(124,292)" />
<path xmlns="http://www.w3.org/2000/svg" d="M0 0 C1.32 0 2.64 0 4 0 C4 1.32 4 2.64 4 4 C2.68 4 1.36 4 0 4 C0 2.68 0 1.36 0 0 Z " fill="#CBD5F3" transform="translate(168,292)" />
<path xmlns="http://www.w3.org/2000/svg" d="M0 0 C1.32 0 2.64 0 4 0 C4 1.32 4 2.64 4 4 C2.68 4 1.36 4 0 4 C0 2.68 0 1.36 0 0 Z " fill="#CBD5F3" transform="translate(236,292)" />
<path xmlns="http://www.w3.org/2000/svg" d="M0 0 C1.32 0 2.64 0 4 0 C4 1.32 4 2.64 4 4 C2.68 4 1.36 4 0 4 C0 2.68 0 1.36 0 0 Z " fill="#CBD5F3" transform="translate(216,296)" />
<path xmlns="http://www.w3.org/2000/svg" d="M0 0 C1.32 0 2.64 0 4 0 C4 1.32 4 2.64 4 4 C2.68 4 1.36 4 0 4 C0 2.68 0 1.36 0 0 Z " fill="#CBD5F3" transform="translate(96,304)" />
<path xmlns="http://www.w3.org/2000/svg" d="M0 0 C1.32 0 2.64 0 4 0 C4 1.32 4 2.64 4 4 C2.68 4 1.36 4 0 4 C0 2.68 0 1.36 0 0 Z " fill="#CBD5F3" transform="translate(140,304)" />
<path xmlns="http://www.w3.org/2000/svg" d="M0 0 C1.32 0 2.64 0 4 0 C4 1.32 4 2.64 4 4 C2.68 4 1.36 4 0 4 C0 2.68 0 1.36 0 0 Z " fill="#CBD5F3" transform="translate(184,308)" />
<path xmlns="http://www.w3.org/2000/svg" d="M0 0 C1.32 0 2.64 0 4 0 C4 1.32 4 2.64 4 4 C2.68 4 1.36 4 0 4 C0 2.68 0 1.36 0 0 Z " fill="#CBD5F3" transform="translate(128,324)" />
<path xmlns="http://www.w3.org/2000/svg" d="M0 0 C1.32 0 2.64 0 4 0 C4 1.32 4 2.64 4 4 C2.68 4 1.36 4 0 4 C0 2.68 0 1.36 0 0 Z " fill="#CBD5F3" transform="translate(172,324)" />
<path xmlns="http://www.w3.org/2000/svg" d="M0 0 C1.32 0 2.64 0 4 0 C4 1.32 4 2.64 4 4 C2.68 4 1.36 4 0 4 C0 2.68 0 1.36 0 0 Z " fill="#CBD5F3" transform="translate(144,336)" />
<path xmlns="http://www.w3.org/2000/svg" d="M0 0 C1.32 0 2.64 0 4 0 C4 1.32 4 2.64 4 4 C2.68 4 1.36 4 0 4 C0 2.68 0 1.36 0 0 Z " fill="#CBD5F3" transform="translate(100,340)" />
<path xmlns="http://www.w3.org/2000/svg" d="M0 0 C1.32 0 2.64 0 4 0 C4 1.32 4 2.64 4 4 C2.68 4 1.36 4 0 4 C0 2.68 0 1.36 0 0 Z " fill="#CBD5F3" transform="translate(188,340)" />
<path xmlns="http://www.w3.org/2000/svg" d="M0 0 C1.32 0 2.64 0 4 0 C4 1.32 4 2.64 4 4 C2.68 4 1.36 4 0 4 C0 2.68 0 1.36 0 0 Z " fill="#CBD5F3" transform="translate(464,340)" />
<path xmlns="http://www.w3.org/2000/svg" d="M0 0 C1.65 0.33 3.3 0.66 5 1 C5 17.5 5 34 5 51 C4.18 51.17 4.18 51.17 0 52 C-2.15 49.85 -1.13 46.16 -1.14 43.29 C-1.14 42.2 -1.13 41.12 -1.13 40 C-1.13 38.89 -1.13 37.79 -1.14 36.65 C-1.14 34.3 -1.13 31.96 -1.13 29.62 C-1.13 26.02 -1.13 22.41 -1.14 18.81 C-1.14 16.54 -1.13 14.27 -1.13 12 C-1.13 10.91 -1.14 9.83 -1.14 8.71 C-1.11 1.11 -1.11 1.11 0 0 Z " fill="#CBD5F3" transform="translate(480,340)" />
<path xmlns="http://www.w3.org/2000/svg" d="M0 0 C1.32 0 2.64 0 4 0 C4 1.32 4 2.64 4 4 C2.68 4 1.36 4 0 4 C0 2.68 0 1.36 0 0 Z " fill="#CBD5F3" transform="translate(440,344)" />
<path xmlns="http://www.w3.org/2000/svg" d="M0 0 C1.32 0 2.64 0 4 0 C4 1.32 4 2.64 4 4 C2.68 4 1.36 4 0 4 C0 2.68 0 1.36 0 0 Z " fill="#CBD5F3" transform="translate(416,348)" />
<path xmlns="http://www.w3.org/2000/svg" d="M0 0 C1.32 0 2.64 0 4 0 C4 1.32 4 2.64 4 4 C2.68 4 1.36 4 0 4 C0 2.68 0 1.36 0 0 Z " fill="#CBD5F3" transform="translate(392,352)" />
<path xmlns="http://www.w3.org/2000/svg" d="M0 0 C1.32 0 2.64 0 4 0 C4 1.32 4 2.64 4 4 C2.68 4 1.36 4 0 4 C0 2.68 0 1.36 0 0 Z " fill="#CBD5F3" transform="translate(132,356)" />
<path xmlns="http://www.w3.org/2000/svg" d="M0 0 C1.32 0 2.64 0 4 0 C4 1.32 4 2.64 4 4 C2.68 4 1.36 4 0 4 C0 2.68 0 1.36 0 0 Z " fill="#CBD5F3" transform="translate(176,356)" />
<path xmlns="http://www.w3.org/2000/svg" d="M0 0 C1.32 0 2.64 0 4 0 C4 1.32 4 2.64 4 4 C2.68 4 1.36 4 0 4 C0 2.68 0 1.36 0 0 Z " fill="#CBD5F3" transform="translate(148,368)" />
<path xmlns="http://www.w3.org/2000/svg" d="M0 0 C1.32 0 2.64 0 4 0 C4 1.32 4 2.64 4 4 C2.68 4 1.36 4 0 4 C0 2.68 0 1.36 0 0 Z " fill="#CBD5F3" transform="translate(104,372)" />
<path xmlns="http://www.w3.org/2000/svg" d="M0 0 C1.32 0 2.64 0 4 0 C4 1.32 4 2.64 4 4 C2.68 4 1.36 4 0 4 C0 2.68 0 1.36 0 0 Z " fill="#CBD5F3" transform="translate(192,372)" />
<path xmlns="http://www.w3.org/2000/svg" d="M0 0 C1.32 0 2.64 0 4 0 C4 1.32 4 2.64 4 4 C2.68 4 1.36 4 0 4 C0 2.68 0 1.36 0 0 Z " fill="#CBD5F3" transform="translate(136,388)" />
<path xmlns="http://www.w3.org/2000/svg" d="M0 0 C1.32 0 2.64 0 4 0 C4 1.32 4 2.64 4 4 C2.68 4 1.36 4 0 4 C0 2.68 0 1.36 0 0 Z " fill="#CBD5F3" transform="translate(180,388)" />
<path xmlns="http://www.w3.org/2000/svg" d="M0 0 C1.32 0 2.64 0 4 0 C4 1.32 4 2.64 4 4 C2.68 4 1.36 4 0 4 C0 2.68 0 1.36 0 0 Z " fill="#CBD5F3" transform="translate(464,392)" />
<path xmlns="http://www.w3.org/2000/svg" d="M0 0 C1.32 0 2.64 0 4 0 C4 1.32 4 2.64 4 4 C2.68 4 1.36 4 0 4 C0 2.68 0 1.36 0 0 Z " fill="#CBD5F3" transform="translate(152,400)" />
<path xmlns="http://www.w3.org/2000/svg" d="M0 0 C1.32 0 2.64 0 4 0 C4 1.32 4 2.64 4 4 C2.68 4 1.36 4 0 4 C0 2.68 0 1.36 0 0 Z " fill="#CBD5F3" transform="translate(108,404)" />
<path xmlns="http://www.w3.org/2000/svg" d="M0 0 C1.32 0 2.64 0 4 0 C4 1.32 4 2.64 4 4 C2.68 4 1.36 4 0 4 C0 2.68 0 1.36 0 0 Z " fill="#CBD5F3" transform="translate(196,404)" />
<path xmlns="http://www.w3.org/2000/svg" d="M0 0 C1.32 0 2.64 0 4 0 C4 1.32 4 2.64 4 4 C2.68 4 1.36 4 0 4 C0 2.68 0 1.36 0 0 Z " fill="#CBD5F3" transform="translate(140,420)" />
<path xmlns="http://www.w3.org/2000/svg" d="M0 0 C1.32 0 2.64 0 4 0 C4 1.32 4 2.64 4 4 C2.68 4 1.36 4 0 4 C0 2.68 0 1.36 0 0 Z " fill="#CBD5F3" transform="translate(184,420)" />
<path xmlns="http://www.w3.org/2000/svg" d="M0 0 C1.32 0 2.64 0 4 0 C4 1.32 4 2.64 4 4 C2.68 4 1.36 4 0 4 C0 2.68 0 1.36 0 0 Z " fill="#CBD5F3" transform="translate(156,432)" />
<path xmlns="http://www.w3.org/2000/svg" d="M0 0 C1.32 0 2.64 0 4 0 C4 1.32 4 2.64 4 4 C2.68 4 1.36 4 0 4 C0 2.68 0 1.36 0 0 Z " fill="#CBD5F3" transform="translate(200,432)" />
<path xmlns="http://www.w3.org/2000/svg" d="M0 0 C1.65 0.33 3.3 0.66 5 1 C5 2.98 5 4.96 5 7 C3.35 7.33 1.7 7.66 0 8 C-0.33 7.67 -0.66 7.34 -1 7 C-1 1 -1 1 0 0 Z " fill="#CBD5F3" transform="translate(112,436)" />
<path xmlns="http://www.w3.org/2000/svg" d="M0 0 C1.32 0 2.64 0 4 0 C4 1.32 4 2.64 4 4 C2.68 4 1.36 4 0 4 C0 2.68 0 1.36 0 0 Z " fill="#CBD5F3" transform="translate(144,452)" />
<path xmlns="http://www.w3.org/2000/svg" d="M0 0 C1.32 0 2.64 0 4 0 C4 1.32 4 2.64 4 4 C2.68 4 1.36 4 0 4 C0 2.68 0 1.36 0 0 Z " fill="#CBD5F3" transform="translate(188,452)" />
<path xmlns="http://www.w3.org/2000/svg" d="M0 0 C1.32 0 2.64 0 4 0 C4 1.32 4 2.64 4 4 C2.68 4 1.36 4 0 4 C0 2.68 0 1.36 0 0 Z " fill="#CBD5F3" transform="translate(160,464)" />
<path xmlns="http://www.w3.org/2000/svg" d="M0 0 C1.32 0 2.64 0 4 0 C4 1.32 4 2.64 4 4 C2.68 4 1.36 4 0 4 C0 2.68 0 1.36 0 0 Z " fill="#CBD5F3" transform="translate(116,472)" />
<path xmlns="http://www.w3.org/2000/svg" d="M0 0 C1.32 0 2.64 0 4 0 C4 1.32 4 2.64 4 4 C2.68 4 1.36 4 0 4 C0 2.68 0 1.36 0 0 Z " fill="#CBD5F3" transform="translate(44,484)" />
<path xmlns="http://www.w3.org/2000/svg" d="M0 0 C1.32 0 2.64 0 4 0 C4 1.32 4 2.64 4 4 C2.68 4 1.36 4 0 4 C0 2.68 0 1.36 0 0 Z " fill="#CBD5F3" transform="translate(140,484)" />
<path xmlns="http://www.w3.org/2000/svg" d="M0 0 C1.32 0 2.64 0 4 0 C4 1.32 4 2.64 4 4 C2.68 4 1.36 4 0 4 C0 2.68 0 1.36 0 0 Z " fill="#CBD5F3" transform="translate(192,484)" />
<path xmlns="http://www.w3.org/2000/svg" d="M0 0 C1.32 0 2.64 0 4 0 C4 1.32 4 2.64 4 4 C2.68 4 1.36 4 0 4 C0 2.68 0 1.36 0 0 Z " fill="#CBD5F3" transform="translate(120,488)" />
<path xmlns="http://www.w3.org/2000/svg" d="M0 0 C1.32 0 2.64 0 4 0 C4 1.32 4 2.64 4 4 C2.68 4 1.36 4 0 4 C0 2.68 0 1.36 0 0 Z " fill="#CBD5F3" transform="translate(164,496)" />
<path xmlns="http://www.w3.org/2000/svg" d="M0 0 C1.32 0 2.64 0 4 0 C4 1.32 4 2.64 4 4 C2.68 4 1.36 4 0 4 C0 2.68 0 1.36 0 0 Z " fill="#CBD5F3" transform="translate(600,500)" />
<path xmlns="http://www.w3.org/2000/svg" d="M0 0 C1.32 0 2.64 0 4 0 C4 1.32 4 2.64 4 4 C2.68 4 1.36 4 0 4 C0 2.68 0 1.36 0 0 Z " fill="#CBD5F3" transform="translate(580,504)" />
<path xmlns="http://www.w3.org/2000/svg" d="M0 0 C1.32 0 2.64 0 4 0 C4 1.32 4 2.64 4 4 C2.68 4 1.36 4 0 4 C0 2.68 0 1.36 0 0 Z " fill="#CBD5F3" transform="translate(188,508)" />
<path xmlns="http://www.w3.org/2000/svg" d="M0 0 C1.32 0 2.64 0 4 0 C4 1.32 4 2.64 4 4 C2.68 4 1.36 4 0 4 C0 2.68 0 1.36 0 0 Z " fill="#CBD5F3" transform="translate(556,508)" />
<path xmlns="http://www.w3.org/2000/svg" d="M0 0 C5 1 5 1 8 4 C8 5.32 8 6.64 8 8 C3 7 3 7 0 4 C0 2.68 0 1.36 0 0 Z " fill="#CBD5F3" transform="translate(76,512)" />
<path xmlns="http://www.w3.org/2000/svg" d="M0 0 C1.32 0 2.64 0 4 0 C4 1.32 4 2.64 4 4 C2.68 4 1.36 4 0 4 C0 2.68 0 1.36 0 0 Z " fill="#CBD5F3" transform="translate(168,512)" />
<path xmlns="http://www.w3.org/2000/svg" d="M0 0 C1.32 0 2.64 0 4 0 C4 1.32 4 2.64 4 4 C2.68 4 1.36 4 0 4 C0 2.68 0 1.36 0 0 Z " fill="#CBD5F3" transform="translate(512,516)" />
<path xmlns="http://www.w3.org/2000/svg" d="M0 0 C1.32 0 2.64 0 4 0 C4 1.32 4 2.64 4 4 C2.68 4 1.36 4 0 4 C0 2.68 0 1.36 0 0 Z " fill="#CBD5F3" transform="translate(468,524)" />
<path xmlns="http://www.w3.org/2000/svg" d="M0 0 C1.32 0 2.64 0 4 0 C4 1.32 4 2.64 4 4 C2.68 4 1.36 4 0 4 C0 2.68 0 1.36 0 0 Z " fill="#CBD5F3" transform="translate(444,528)" />
<path xmlns="http://www.w3.org/2000/svg" d="M0 0 C1.32 0 2.64 0 4 0 C4 1.32 4 2.64 4 4 C2.68 4 1.36 4 0 4 C0 2.68 0 1.36 0 0 Z " fill="#CBD5F3" transform="translate(424,532)" />
<path xmlns="http://www.w3.org/2000/svg" d="M0 0 C1.32 0 2.64 0 4 0 C4 1.32 4 2.64 4 4 C2.68 4 1.36 4 0 4 C0 2.68 0 1.36 0 0 Z " fill="#CBD5F3" transform="translate(400,536)" />
<path xmlns="http://www.w3.org/2000/svg" d="M0 0 C5 1 5 1 8 4 C8 5.32 8 6.64 8 8 C3 7 3 7 0 4 C0 2.68 0 1.36 0 0 Z " fill="#CBD5F3" transform="translate(108,540)" />
<path xmlns="http://www.w3.org/2000/svg" d="M0 0 C1.32 0 2.64 0 4 0 C4 1.32 4 2.64 4 4 C2.68 4 1.36 4 0 4 C0 2.68 0 1.36 0 0 Z " fill="#CBD5F3" transform="translate(180,544)" />
<path xmlns="http://www.w3.org/2000/svg" d="M0 0 C1.32 0 2.64 0 4 0 C4 1.32 4 2.64 4 4 C2.68 4 1.36 4 0 4 C0 2.68 0 1.36 0 0 Z " fill="#CBD5F3" transform="translate(356,544)" />
<path xmlns="http://www.w3.org/2000/svg" d="M0 0 C1.32 0 2.64 0 4 0 C4 1.32 4 2.64 4 4 C2.68 4 1.36 4 0 4 C0 2.68 0 1.36 0 0 Z " fill="#CBD5F3" transform="translate(152,548)" />
<path xmlns="http://www.w3.org/2000/svg" d="M0 0 C1.32 0 2.64 0 4 0 C4 1.32 4 2.64 4 4 C2.68 4 1.36 4 0 4 C0 2.68 0 1.36 0 0 Z " fill="#CBD5F3" transform="translate(200,548)" />
<path xmlns="http://www.w3.org/2000/svg" d="M0 0 C1.32 0 2.64 0 4 0 C4 1.32 4 2.64 4 4 C2.68 4 1.36 4 0 4 C0 2.68 0 1.36 0 0 Z " fill="#CBD5F3" transform="translate(332,548)" />
<path xmlns="http://www.w3.org/2000/svg" d="M0 0 C1.32 0 2.64 0 4 0 C4 1.32 4 2.64 4 4 C2.68 4 1.36 4 0 4 C0 2.68 0 1.36 0 0 Z " fill="#CBD5F3" transform="translate(124,552)" />
<path xmlns="http://www.w3.org/2000/svg" d="M0 0 C1.32 0 2.64 0 4 0 C4 1.32 4 2.64 4 4 C2.68 4 1.36 4 0 4 C0 2.68 0 1.36 0 0 Z " fill="#CBD5F3" transform="translate(312,552)" />
<path xmlns="http://www.w3.org/2000/svg" d="M0 0 C1.32 0 2.64 0 4 0 C4 1.32 4 2.64 4 4 C2.68 4 1.36 4 0 4 C0 2.68 0 1.36 0 0 Z " fill="#CBD5F3" transform="translate(288,556)" />
<path xmlns="http://www.w3.org/2000/svg" d="M0 0 C1.32 0 2.64 0 4 0 C4 1.32 4 2.64 4 4 C2.68 4 1.36 4 0 4 C0 2.68 0 1.36 0 0 Z " fill="#CBD5F3" transform="translate(244,564)" />
<path xmlns="http://www.w3.org/2000/svg" d="M0 0 C1.32 0 2.64 0 4 0 C4 1.32 4 2.64 4 4 C2.68 4 1.36 4 0 4 C0 2.68 0 1.36 0 0 Z " fill="#CBD5F3" transform="translate(220,568)" />
</g></g></svg>