<svg xmlns="http://www.w3.org/2000/svg" xmlns:xlink="http://www.w3.org/1999/xlink" width="256" height="256" viewBox="0 0 256 256" fill="none" role="img" aria-labelledby="headphones-title"><title id="headphones-title">Headphones</title><path d="M38 135 C36 68 71 26 128 26 C187 25 221 70 218 135 L203 133 C205 81 180 43 128 43 C78 43 51 81 53 134 Z" fill="#CBD5F3" stroke="#272823" stroke-width="3.2" stroke-linecap="round" stroke-linejoin="round"/><path d="M36 119 C24 120 24 134 25 157 L26 178 Q27 195 44 197 L59 197 L60 119 Z" fill="#B52626" stroke="#272823" stroke-width="3.2" stroke-linecap="round" stroke-linejoin="round"/><path d="M59 119 Q72 118 73 132 L73 185 Q72 198 59 198 Q47 198 47 185 L47 132 Q47 120 59 119 Z" fill="#F7F5EE" stroke="#272823" stroke-width="3.2" stroke-linecap="round" stroke-linejoin="round"/><path d="M219 119 Q234 120 232 138 L232 179 Q232 196 216 197 L199 197 L199 120 Z" fill="#B52626" stroke="#272823" stroke-width="3.2" stroke-linecap="round" stroke-linejoin="round"/><path d="M198 119 Q211 119 211 133 L210 185 Q210 198 198 198 Q185 198 185 185 L185 133 Q185 120 198 119 Z" fill="#F7F5EE" stroke="#272823" stroke-width="3.2" stroke-linecap="round" stroke-linejoin="round"/></svg>