<svg xmlns="http://www.w3.org/2000/svg" xmlns:xlink="http://www.w3.org/1999/xlink" width="256" height="256" viewBox="0 0 256 256" fill="none" role="img" aria-labelledby="radiating-circle-title"><title id="radiating-circle-title">Radiating circle</title><g transform="translate(-35.08559 -3395.09058) scale(0.9900009)"><path xmlns="http://www.w3.org/2000/svg" transform="matrix(1,0,0,-1,205.03907,3509.9102)" d="M27.163527 35.871095C29.470507 35.391897 28.539484 35.925909 30.141364 34.378778 30.209818 34.015954 30.497305 32.64681 30.367239 32.318216 27.416769 24.712639 8.536557 4.75741 3.128503 .054413 1.396557 .218708 2.046856 .088612 .438131 .964859L0 2.68314C1.417047 8.49514 21.865004 30.846348 27.163527 35.871095Z" fill="#0a0906" fill-opacity=".984314" />
<path xmlns="http://www.w3.org/2000/svg" transform="matrix(1,0,0,-1,96.02344,3509.4532)" d="M.128983 37.63672C8.505305 36.77416 20.659033 14.464005 25.809693 7.76206 27.853116 5.105927 28.15298 3.264458 27.566309-.000942 23.76835 .71101 22.886618 1.334015 19.901234 5.181301 13.152805 13.875343 5.656835 23.917973 .196754 33.488267-.154427 34.104379 .057104 36.849466 .128983 37.63672Z" fill="#0a0906" fill-opacity=".988235" />
<path xmlns="http://www.w3.org/2000/svg" transform="matrix(1,0,0,-1,51.601564,3551.254)" d="M2.96622 12.40625C9.053361 12.016045 40.044263 7.942801 42.63465 3.369872 42.431337 1.172401 42.62024 1.952865 40.921155 .00184 30.28577 .884935 19.04115 3.10294 8.505028 5.047119 5.343712 5.635849 1.173342 6.464153 0 9.640559 1.10557 11.776419 .602421 11.064492 2.96622 12.40625Z" fill="#0a0906" fill-opacity=".984314" />
<path xmlns="http://www.w3.org/2000/svg" transform="matrix(1,0,0,-1,117.09375,3668.5274)" d="M17.291804 40.617189 19.721997 39.679246 20.433928 37.851499C20.030035 32.039499 6.651637 3.595573 2.890643 .001579 1.533838 .713535-.289166 2.219566 .03874 3.828304 2.002069 13.439672 11.240259 33.518198 17.291804 40.617189Z" fill="#0a0906" fill-opacity=".984314" />
<path xmlns="http://www.w3.org/2000/svg" transform="matrix(1,0,0,-1,161.38282,3492.0782)" d="M5.1511 45.304689C5.281167 45.256769 6.759838 44.736448 6.876214 44.57215 10.846684 38.849145 6.794076 3.764923 3.720385-.000214-.339078 1.143021-.256907 6.421108 .235979 9.89188 1.297053 17.401616 .359154 40.72491 5.1511 45.304689Z" fill="#0a0906" fill-opacity=".988235" />
<path xmlns="http://www.w3.org/2000/svg" transform="matrix(1,0,0,-1,64.39844,3618.4024)" d="M34.092645 24.335938C36.986299 23.781435 36.31954 24.363284 37.65786 22.501254L37.325857 20.906233C33.53885 16.285386 9.401102 3.038948 3.111331 .026838 .598982 .752483 1.554644 .067921 0 1.91626L.167046 3.730389C3.593288 9.124802 27.843264 21.727725 34.092645 24.335938Z" fill="#0a0906" fill-opacity=".984314" />
<path xmlns="http://www.w3.org/2000/svg" transform="matrix(1,0,0,-1,235.51563,3553.2266)" d="M28.06026 10.935349C30.949122 11.421393 39.711545 12.017007 42.271814 10.374038 43.223356 5.568354 35.056486 4.842696 31.462525 4.370343 26.157155 3.665236 20.872336 3.096998 15.560121 2.357662 11.247369 2.029069 3.06 .564108 0 3.06279L.116406 4.678366C3.676137 8.929547 21.673283 10.141247 28.06026 10.935349Z" fill="#0a0906" fill-opacity=".980392" />
<path xmlns="http://www.w3.org/2000/svg" transform="matrix(1,0,0,-1,226,3619.875)" d="M.222579 24.734375C6.458955 24.309943 19.089118 16.156636 24.743615 12.850161 29.809388 9.885971 38.373285 6.394733 37.15476 .000847 28.953686 .733337 11.942277 12.672213 4.2957 17.16984 .578519 19.353619-.530441 20.709103 .222579 24.734375Z" fill="#0a0906" fill-opacity=".988235" />
<path xmlns="http://www.w3.org/2000/svg" transform="matrix(1,0,0,-1,184.50782,3670.5743)" d="M.016075 40.683595C2.288827 40.5946 4.185062 40.36178 5.314592 38.04793 9.100229 30.271214 18.896317 7.98848 17.445042-.000458 16.03484 .129612 14.035971 .417171 13.310332 1.58094 9.031809 8.412952-.442583 34.111719 .016075 40.683595Z" fill="#0a0906" fill-opacity=".988235" />
<path xmlns="http://www.w3.org/2000/svg" transform="matrix(1,0,0,-1,77.77344,3525.5469)" d="M1.273893 17.722657C7.212484 16.709492 19.955609 9.17242 23.175797 3.736932 23.840508 2.614236 22.741114 1.073896 22.224953-.000879 16.77035 1.861152 3.037331 9.247685 .025935 14.05337 .03278 16.654736-.305395 15.456728 1.273893 17.722657Z" fill="#0a0906" fill-opacity=".984314" />
<path xmlns="http://www.w3.org/2000/svg" transform="matrix(1,0,0,-1,228.9375,3525.246)" d="M19.612769 16.910157C21.043507 16.42411 21.118788 16.232436 22.330468 15.287728 23.843352 9.153978 7.742396 2.55477 2.888839 .02186 .698235 .487368 1.61557 .001263 0 1.500472L.116406 3.24616C3.094258 8.038152 14.348473 14.343018 19.612769 16.910157Z" fill="#0a0906" fill-opacity=".984314" />
<path xmlns="http://www.w3.org/2000/svg" transform="matrix(1,0,0,-1,237.25782,3579.6524)" d="M1.007007 8.835938C6.5109 8.801709 21.030478 8.165086 24.94618 4.584783 25.534907 2.051872 25.439078 2.969183 24.186326 .12137 18.976796-.001852 3.656249 1.606882 .130746 5.248796-.115697 7.384655-.108831 6.631621 1.007007 8.835938Z" fill="#0a0906" fill-opacity=".984314" />
<path xmlns="http://www.w3.org/2000/svg" transform="matrix(1,0,0,-1,155.90625,3662.8438)" d="M2.350125 26.238282C6.512272 25.286728 7.066776 23.602705 7.320064 19.413136 7.628118 14.278858 7.27894 4.530586 5.12941-.001268 4.232632 .149336 3.096306 .450521 2.185836 .655891-1.812016 4.475794 .556568 21.234072 2.350125 26.238282Z" fill="#0a0906" fill-opacity=".984314" />
<path xmlns="http://www.w3.org/2000/svg" transform="matrix(1,0,0,-1,132.70313,3492.5157)" d="M.502186 24.753907 3.411582 24.43903C7.957085 21.65283 12.263026 5.093023 9.394704-.000179 3.295241 2.012457-1.619962 19.427948 .502186 24.753907Z" fill="#0a0906" fill-opacity=".984314" />
<path xmlns="http://www.w3.org/2000/svg" transform="matrix(1,0,0,-1,184.61719,3491.0626)" d="M7.887341 24.472657C10.714589 23.178818 10.057384 23.966128 11.371747 21.618052 11.700337 15.929272 6.442862 4.592781 3.129573 .047234 2.075345-.000685 1.835787 .156759 .774714 .382668-2.230521 4.88714 4.224925 21.193566 7.887341 24.472657Z" fill="#0a0906" fill-opacity=".984314" />
<path xmlns="http://www.w3.org/2000/svg" transform="matrix(1,0,0,-1,209.90625,3640.0469)" d="M0 21.631674C7.201611 21.775433 18.366852 8.275701 18.661215 1.601139 11.213161 .143005 .253289 15.395238 0 21.631674Z" fill="#0a0906" fill-opacity=".988235" />
<path xmlns="http://www.w3.org/2000/svg" transform="matrix(1,0,0,-1,65.546878,3581.9766)" d="M17.429677 9.597082C20.685463 10.124202 23.943305 10.801883 25.71564 7.584402 23.757103 3.7645 11.773129 1.964073 7.506928 1.074132 5.364244 .75923 4.626296 .848213 2.436377 .978282 .779732 1.902452 .863235 1.792937 0 3.47698L.581194 4.983002C4.713905 8.049876 12.194134 8.741369 17.429677 9.597082Z" fill="#0a0906" fill-opacity=".980392" />
<path xmlns="http://www.w3.org/2000/svg" transform="matrix(1,0,0,-1,98.00781,3636.1134)" d="M14.208793 20.414063C16.72388 19.84587 16.72733 19.311884 17.060029 17.141797 15.530712 11.788456 7.452867 3.710501 3.222263 .00013 .558625 1.232355 .689356 1.1092 0 3.662647 1.082295 9.577334 9.648229 16.30664 14.208793 20.414063Z" fill="#0a0906" fill-opacity=".980392" />
</g></svg>