<svg xmlns="http://www.w3.org/2000/svg" xmlns:xlink="http://www.w3.org/1999/xlink" width="256" height="256" viewBox="0 0 256 256" fill="none" role="img" aria-labelledby="sticky-note-title"><title id="sticky-note-title">Sticky note</title><defs xmlns="http://www.w3.org/2000/svg">
<clipPath id="clip_1">
<path transform="matrix(1,0,0,-1,0,5426.324)" d="M121.3096 1877.0862C118.574138 1889.7058 131.77498 1895.2732 140.56278 1884.395 140.92498 1881.1548 140.45793 1879.5151 142.34513 1877.6497 160.3401 1873.4133 199.2085 1884.908 212.39974 1869.542 217.20349 1863.9473 215.90717 1829.0357 215.89763 1820.0281L215.85959 1756.0256C215.85005 1734.7046 216.7745 1710.4087 214.95404 1689.1716 214.17249 1679.9526 203.60242 1674.0432 195.26259 1674.273 153.99231 1674.2339 112.683849 1674.3196 71.40404 1674.2185 58.146078 1673.0278 45.66965 1679.1174 45.755434 1693.8399 46.089025 1750.301 44.506845 1807.4526 46.594186 1863.7471 47.299497 1882.9707 107.794307 1877.9241 121.3096 1877.0862Z" />
</clipPath>
<clipPath id="clip_2">
<path transform="matrix(1,0,0,-1,0,5426.324)" d="M121.319339 1877.0862C118.58387 1889.7058 131.78472 1895.2732 140.57251 1884.395L139.50502 1878.3264 138.4851 1877.8928C133.63372 1876.581 126.92376 1876.2673 122.92064 1879.4695L121.319339 1877.0862Z" />
</clipPath>
<clipPath id="clip_3">
<path transform="matrix(1,0,0,-1,0,5426.324)" d="M121.319339 1877.0862C118.58387 1889.7058 131.78472 1895.2732 140.57251 1884.395L139.50502 1878.3264 138.4851 1877.8928C135.7973 1889.5618 127.77204 1890.4932 122.92064 1879.4695L121.319339 1877.0862Z" />
</clipPath>
<clipPath id="clip_4">
<path transform="matrix(1,0,0,-1,0,5426.324)" d="M155.03084 1683.9758C125.302898 1682.8613 90.69504 1683.3306 60.87178 1684.8853 55.734445 1685.1531 55.21967 1697.3875 55.18154 1701.8076 54.895608 1739.8577 55.11483 1777.9866 55.067174 1816.044 55.105298 1826.793 53.94252 1855.9661 57.125955 1864.0364 64.760478 1870.2261 92.82999 1867.8018 103.71466 1867.6189L103.97203 1853.1538C119.08858 1852.2312 141.79193 1852.887 157.39456 1853.0891 157.63285 1857.5637 157.50896 1863.1443 157.52802 1867.7105 170.14737 1867.6941 183.5388 1868.6941 196.05333 1867.5654 201.38129 1867.084 203.05878 1865.4939 206.04206 1861.5457 206.82361 1856.0222 206.70928 1850.4734 206.68068 1844.9043 206.43288 1796.1426 207.24304 1747.3464 205.98493 1698.5999 205.88962 1695.0833 205.18427 1689.9299 203.56395 1686.7803 195.59584 1681.8511 165.59146 1683.8386 155.03084 1683.9758Z" />
</clipPath>
<clipPath id="clip_5">
<path transform="matrix(1,0,0,-1,0,5426.324)" d="M206.04248 1861.543C206.82404 1856.0198 206.7097 1850.4707 206.6811 1844.9016 206.43329 1796.1399 207.24347 1747.3438 205.98535 1698.5974 205.89003 1695.0808 205.1847 1689.9273 203.56438 1686.7778 195.59626 1681.8484 165.59186 1683.8359 155.03125 1683.9732L155.39345 1684.4946C161.19797 1684.5471 197.22614 1718.2359 201.81066 1724.3042L204.28876 1725.0088C204.68907 1725.4719 205.0894 1725.9353 205.49924 1726.3987 206.98612 1765.2644 204.53653 1824.9658 206.04248 1861.543Z" />
</clipPath>
<clipPath id="clip_6">
<path transform="matrix(1,0,0,-1,0,5426.324)" d="M161.10938 1717.8186C172.5564 1719.9329 190.6277 1723.5095 201.80785 1724.3008 197.22332 1718.2322 161.19515 1684.5437 155.39063 1684.4912 157.20156 1695.617 159.1078 1706.7263 161.10938 1717.8186Z" />
</clipPath>
</defs>
<g transform="translate(-41.72750 -355.95423) scale(1.1572623)"><path xmlns="http://www.w3.org/2000/svg" transform="matrix(1,0,0,-1,49.882814,516.1953)" d="M1.304345 139.62769C.667439 147.00469-1.009225 180.79972 1.074033 186.37972 10.842918 192.35947 151.8796 187.81444 174.22679 191.79544 176.2688 192.1592 186.95516 192.21396 187.355 189.0197 190.6108 171.09995 191.91986 145.12071 191.26645 127.00371 192.12017 110.35971 194.65654 73.20997 193.02414 57.702974 188.19747 41.959718 165.18862 22.114716 152.24196 14.742218 127.0463 .394714 93.33231 6.504211 65.22895 5.295197 52.19827 4.734207 12.246502 2.660446 1.548141 5.541931 .311089 6.846939-.137514 8.484222 .035778 10.275208 4.224051 53.518724 1.269086 96.45469 1.304345 139.62769Z" fill="#fcdc5e" />
<path xmlns="http://www.w3.org/2000/svg" transform="matrix(1,0,0,-1,49.882814,515.8008)" d="M1.304345 139.2345C1.659931 142.81874 .708685 149.058 3.278063 151.40625L4.502376 150.14551C6.966727 102.705 6.767924 55.16327 3.906726 7.74527 26.782059 7.360519 48.934209 7.948517 71.919818 8.552261 89.64289 9.017258 109.847599 7.434021 127.27735 9.934525 131.20906 10.49852 137.15502 15.031525 139.99897 17.809525 149.00942 26.613022 152.2607 37.572755 154.06938 49.69725 167.34688 51.323999 179.10823 52.18203 190.40523 60.243028 190.00464 70.78352 187.54407 106.12501 188.3175 114.82201 189.49755 118.90651 188.21698 124.31552 189.89813 127.03727L191.26645 126.61052C192.12017 109.96652 194.65654 72.81677 193.02414 57.30977 188.19747 41.56652 165.18862 21.721512 152.24196 14.349014 127.0463 .001511 93.33231 6.111008 65.22895 4.902008 52.19827 4.341003 12.246502 2.267242 1.548141 5.148743 .311089 6.453735-.137514 8.091019 .035778 9.882019 4.224051 53.12552 1.269086 96.06149 1.304345 139.2345Z" fill="#1b1c14" />
<path xmlns="http://www.w3.org/2000/svg" transform="matrix(1,0,0,-1,189.89844,503.2539)" d="M46.644876 41.132814C46.890935 40.937814 47.09648 40.379056 47.26227 40.039308 35.9045 22.529057 19.33224 8.948078 .591163 .001328L0 .746063C11.012689 11.064564 14.96165 18.937344 16.978892 34.199846 27.706513 34.769098 36.751459 36.81806 46.644876 41.132814Z" fill="#fcdc5e" />
<path xmlns="http://www.w3.org/2000/svg" transform="matrix(1,0,0,-1,49.945314,401.375)" d="M1.242308 24.807374C.605402 32.184377-1.071262 65.9794 1.011996 71.559398 10.780882 77.53915 151.81757 72.99413 174.16477 76.97513 176.20677 77.33888 186.89313 77.39364 187.29297 74.19939 190.54877 56.27964 191.85784 30.300396 191.20442 12.183395L189.8361 12.610146C188.15496 9.888397 189.43552 4.479385 188.25548 .394882 186.04169 24.124135 187.31848 48.703134 184.39577 73.25813 163.6322 74.01788 139.53183 71.77613 118.54096 71.33738L3.852931 69.930377C3.624125 59.217378 4.192779 46.58738 4.440339 35.718378L3.216026 36.979127C.646648 34.63088 1.597895 28.391625 1.242308 24.807374Z" fill="#21201d" />
</g></svg>