<svg xmlns="http://www.w3.org/2000/svg" width="256" height="256" viewBox="0 0 256 256" role="img" aria-labelledby="upload-title"><title id="upload-title">Upload</title><path d="M128 24 C184 23 230 71 229 128 C231 186 184 233 127 232 C70 234 23 186 25 128 C23 71 70 23 128 24 Z" fill="#F7F5EE" stroke="#272823" stroke-width="3.2" stroke-linejoin="round" stroke-linecap="round"/><path d="M127 72 Q130 70 134 76 L173 119 Q178 125 172 126 L143 126 L143 173 Q143 179 137 179 L120 179 Q114 179 114 173 L114 126 L85 126 Q79 125 84 119 Z" fill="#B52626" stroke="none" stroke-width="3.2" stroke-linejoin="round" stroke-linecap="round"/></svg>